<svg version="1.1" viewBox="0.0 0.0 600.0 371.0" fill="none" stroke="none" stroke-linecap="square" stroke-miterlimit="10" width="600" height="371" xmlns:xlink="http://www.w3.org/1999/xlink" xmlns="http://www.w3.org/2000/svg"><path fill="#ffffff" d="M0 0L600.0 0L600.0 371.0L0 371.0L0 0Z" fill-rule="nonzero"/><path stroke="#333333" stroke-width="1.0" stroke-linecap="butt" d="M81.5 298.5L462.5 298.5" fill-rule="nonzero"/><path stroke="#cccccc" stroke-width="1.0" stroke-linecap="butt" d="M81.5 207.5L462.5 207.5" fill-rule="nonzero"/><path stroke="#cccccc" stroke-width="1.0" stroke-linecap="butt" d="M81.5 116.5L462.5 116.5" fill-rule="nonzero"/><path stroke="#cccccc" stroke-width="1.0" stroke-linecap="butt" d="M81.5 25.5L462.5 25.5" fill-rule="nonzero"/><path stroke="#e6e6e6" stroke-width="1.0" stroke-linecap="butt" d="M81.5 268.5L462.5 268.5" fill-rule="nonzero"/><path stroke="#e6e6e6" stroke-width="1.0" stroke-linecap="butt" d="M81.5 237.5L462.5 237.5" fill-rule="nonzero"/><path stroke="#e6e6e6" stroke-width="1.0" stroke-linecap="butt" d="M81.5 176.5L462.5 176.5" fill-rule="nonzero"/><path stroke="#e6e6e6" stroke-width="1.0" stroke-linecap="butt" d="M81.5 146.5L462.5 146.5" fill-rule="nonzero"/><path stroke="#e6e6e6" stroke-width="1.0" stroke-linecap="butt" d="M81.5 85.5L462.5 85.5" fill-rule="nonzero"/><path stroke="#e6e6e6" stroke-width="1.0" stroke-linecap="butt" d="M81.5 55.5L462.5 55.5" fill-rule="nonzero"/><clipPath id="id_0"><path d="M81.55 25.05L462.19 25.05L462.19 298.45L81.55 298.45L81.55 25.05Z" clip-rule="nonzero"/></clipPath><path stroke="#000000" stroke-width="0.0" stroke-linecap="butt" stroke-opacity="0.0" clip-path="url(#id_0)" d="M121.0 298.0L103.0 298.0L103.0 153.0C103.0 151.89543 103.89543 151.0 105.0 151.0L119.0 151.0C120.10457 151.0 121.0 151.89543 121.0 153.0Z" fill-rule="nonzero"/><path fill="#4a86e8" clip-path="url(#id_0)" d="M121.0 298.0L103.0 298.0L103.0 153.0C103.0 151.89543 103.89543 151.0 105.0 151.0L119.0 151.0C120.10457 151.0 121.0 151.89543 121.0 153.0Z" fill-rule="nonzero"/><path stroke="#000000" stroke-width="0.0" stroke-linecap="butt" stroke-opacity="0.0" clip-path="url(#id_0)" d="M181.0 298.0L163.0 298.0L163.0 142.0C163.0 140.89543 163.89543 140.0 165.0 140.0L179.0 140.0C180.10457 140.0 181.0 140.89543 181.0 142.0Z" fill-rule="nonzero"/><path fill="#4a86e8" clip-path="url(#id_0)" d="M181.0 298.0L163.0 298.0L163.0 142.0C163.0 140.89543 163.89543 140.0 165.0 140.0L179.0 140.0C180.10457 140.0 181.0 140.89543 181.0 142.0Z" fill-rule="nonzero"/><path stroke="#000000" stroke-width="0.0" stroke-linecap="butt" stroke-opacity="0.0" clip-path="url(#id_0)" d="M241.0 298.0L223.0 298.0L223.0 143.0C223.0 141.89543 223.89543 141.0 225.0 141.0L239.0 141.0C240.10457 141.0 241.0 141.89543 241.0 143.0Z" fill-rule="nonzero"/><path fill="#4a86e8" clip-path="url(#id_0)" d="M241.0 298.0L223.0 298.0L223.0 143.0C223.0 141.89543 223.89543 141.0 225.0 141.0L239.0 141.0C240.10457 141.0 241.0 141.89543 241.0 143.0Z" fill-rule="nonzero"/><path stroke="#000000" stroke-width="0.0" stroke-linecap="butt" stroke-opacity="0.0" clip-path="url(#id_0)" d="M301.0 298.0L283.0 298.0L283.0 145.0C283.0 143.89543 283.89542 143.0 285.0 143.0L299.0 143.0C300.10458 143.0 301.0 143.89543 301.0 145.0Z" fill-rule="nonzero"/><path fill="#4a86e8" clip-path="url(#id_0)" d="M301.0 298.0L283.0 298.0L283.0 145.0C283.0 143.89543 283.89542 143.0 285.0 143.0L299.0 143.0C300.10458 143.0 301.0 143.89543 301.0 145.0Z" fill-rule="nonzero"/><path stroke="#000000" stroke-width="0.0" stroke-linecap="butt" stroke-opacity="0.0" clip-path="url(#id_0)" d="M361.0 298.0L343.0 298.0L343.0 152.0C343.0 150.89543 343.89542 150.0 345.0 150.0L359.0 150.0C360.10458 150.0 361.0 150.89543 361.0 152.0Z" fill-rule="nonzero"/><path fill="#4a86e8" clip-path="url(#id_0)" d="M361.0 298.0L343.0 298.0L343.0 152.0C343.0 150.89543 343.89542 150.0 345.0 150.0L359.0 150.0C360.10458 150.0 361.0 150.89543 361.0 152.0Z" fill-rule="nonzero"/><path stroke="#000000" stroke-width="0.0" stroke-linecap="butt" stroke-opacity="0.0" clip-path="url(#id_0)" d="M421.0 298.0L403.0 298.0L403.0 163.0C403.0 161.89543 403.89542 161.0 405.0 161.0L419.0 161.0C420.10458 161.0 421.0 161.89543 421.0 163.0Z" fill-rule="nonzero"/><path fill="#4a86e8" clip-path="url(#id_0)" d="M421.0 298.0L403.0 298.0L403.0 163.0C403.0 161.89543 403.89542 161.0 405.0 161.0L419.0 161.0C420.10458 161.0 421.0 161.89543 421.0 163.0Z" fill-rule="nonzero"/><path stroke="#000000" stroke-width="0.0" stroke-linecap="butt" stroke-opacity="0.0" clip-path="url(#id_0)" d="M140.0 298.0L122.0 298.0L122.0 79.0C122.0 77.89543 122.89543 77.0 124.0 77.0L138.0 77.0C139.10457 77.0 140.0 77.89543 140.0 79.0Z" fill-rule="nonzero"/><path fill="#6aa84f" clip-path="url(#id_0)" d="M140.0 298.0L122.0 298.0L122.0 79.0C122.0 77.89543 122.89543 77.0 124.0 77.0L138.0 77.0C139.10457 77.0 140.0 77.89543 140.0 79.0Z" fill-rule="nonzero"/><path stroke="#000000" stroke-width="0.0" stroke-linecap="butt" stroke-opacity="0.0" clip-path="url(#id_0)" d="M200.0 298.0L182.0 298.0L182.0 38.0C182.0 36.89543 182.89543 36.0 184.0 36.0L198.0 36.0C199.10457 36.0 200.0 36.89543 200.0 38.0Z" fill-rule="nonzero"/><path fill="#6aa84f" clip-path="url(#id_0)" d="M200.0 298.0L182.0 298.0L182.0 38.0C182.0 36.89543 182.89543 36.0 184.0 36.0L198.0 36.0C199.10457 36.0 200.0 36.89543 200.0 38.0Z" fill-rule="nonzero"/><path stroke="#000000" stroke-width="0.0" stroke-linecap="butt" stroke-opacity="0.0" clip-path="url(#id_0)" d="M260.0 298.0L242.0 298.0L242.0 42.0C242.0 40.89543 242.89543 40.0 244.0 40.0L258.0 40.0C259.10458 40.0 260.0 40.89543 260.0 42.0Z" fill-rule="nonzero"/><path fill="#6aa84f" clip-path="url(#id_0)" d="M260.0 298.0L242.0 298.0L242.0 42.0C242.0 40.89543 242.89543 40.0 244.0 40.0L258.0 40.0C259.10458 40.0 260.0 40.89543 260.0 42.0Z" fill-rule="nonzero"/><path stroke="#000000" stroke-width="0.0" stroke-linecap="butt" stroke-opacity="0.0" clip-path="url(#id_0)" d="M320.0 298.0L302.0 298.0L302.0 49.0C302.0 47.89543 302.89542 47.0 304.0 47.0L318.0 47.0C319.10458 47.0 320.0 47.89543 320.0 49.0Z" fill-rule="nonzero"/><path fill="#6aa84f" clip-path="url(#id_0)" d="M320.0 298.0L302.0 298.0L302.0 49.0C302.0 47.89543 302.89542 47.0 304.0 47.0L318.0 47.0C319.10458 47.0 320.0 47.89543 320.0 49.0Z" fill-rule="nonzero"/><path stroke="#000000" stroke-width="0.0" stroke-linecap="butt" stroke-opacity="0.0" clip-path="url(#id_0)" d="M380.0 298.0L362.0 298.0L362.0 62.0C362.0 60.89543 362.89542 60.0 364.0 60.0L378.0 60.0C379.10458 60.0 380.0 60.89543 380.0 62.0Z" fill-rule="nonzero"/><path fill="#6aa84f" clip-path="url(#id_0)" d="M380.0 298.0L362.0 298.0L362.0 62.0C362.0 60.89543 362.89542 60.0 364.0 60.0L378.0 60.0C379.10458 60.0 380.0 60.89543 380.0 62.0Z" fill-rule="nonzero"/><path stroke="#000000" stroke-width="0.0" stroke-linecap="butt" stroke-opacity="0.0" clip-path="url(#id_0)" d="M440.0 298.0L422.0 298.0L422.0 77.0C422.0 75.89543 422.89542 75.0 424.0 75.0L438.0 75.0C439.10458 75.0 440.0 75.89543 440.0 77.0Z" fill-rule="nonzero"/><path fill="#6aa84f" clip-path="url(#id_0)" d="M440.0 298.0L422.0 298.0L422.0 77.0C422.0 75.89543 422.89542 75.0 424.0 75.0L438.0 75.0C439.10458 75.0 440.0 75.89543 440.0 77.0Z" fill-rule="nonzero"/><path fill="#424242" d="M230.13562 346.7469Q229.97937 348.09064 229.13562 348.84064Q228.29187 349.575 226.90125 349.575Q225.38562 349.575 224.47937 348.4969Q223.57312 347.40314 223.57312 345.575L223.57312 344.7625Q223.57312 343.575 223.995 342.66876Q224.41687 341.7625 225.19812 341.27814Q225.97937 340.79376 226.995 340.79376Q228.35437 340.79376 229.16687 341.5594Q229.995 342.325 230.13562 343.65314L229.01062 343.65314Q228.85437 342.6375 228.37 342.1844Q227.88562 341.73126 226.995 341.73126Q225.91687 341.73126 225.3075 342.52814Q224.69812 343.325 224.69812 344.79376L224.69812 345.6219Q224.69812 347.0125 225.27625 347.84064Q225.85437 348.65314 226.90125 348.65314Q227.83875 348.65314 228.33875 348.23126Q228.83875 347.79376 229.01062 346.7469L230.13562 346.7469ZM231.40125 346.21564Q231.40125 345.29376 231.76062 344.54376Q232.13562 343.79376 232.79187 343.40314Q233.44812 342.9969 234.27625 342.9969Q235.57312 342.9969 236.37 343.8875Q237.1825 344.77814 237.1825 346.27814L237.1825 346.35626Q237.1825 347.27814 236.82312 348.0125Q236.46375 348.7469 235.8075 349.16876Q235.15125 349.575 234.29187 349.575Q233.01062 349.575 232.19812 348.6844Q231.40125 347.77814 231.40125 346.29376L231.40125 346.21564ZM232.495 346.35626Q232.495 347.40314 232.97937 348.04376Q233.47937 348.6844 234.29187 348.6844Q235.12 348.6844 235.60437 348.04376Q236.08875 347.3875 236.08875 346.21564Q236.08875 345.1844 235.58875 344.54376Q235.10437 343.8875 234.27625 343.8875Q233.47937 343.8875 232.97937 344.52814Q232.495 345.15314 232.495 346.35626ZM239.71375 343.10626L239.745 343.90314Q240.47937 342.9969 241.65125 342.9969Q243.66687 342.9969 243.6825 345.2625L243.6825 349.45L242.58875 349.45L242.58875 345.2469Q242.58875 344.575 242.27625 344.2469Q241.97937 343.91876 241.32312 343.91876Q240.79187 343.91876 240.38562 344.2Q239.995 344.48126 239.77625 344.9344L239.77625 349.45L238.69812 349.45L238.69812 343.10626L239.71375 343.10626ZM248.22937 348.6844Q248.8075 348.6844 249.245 348.34064Q249.6825 347.98126 249.72937 347.45L250.76062 347.45Q250.72937 347.9969 250.37 348.4969Q250.02625 348.98126 249.44812 349.27814Q248.88562 349.575 248.22937 349.575Q246.9325 349.575 246.16687 348.71564Q245.41687 347.84064 245.41687 346.34064L245.41687 346.15314Q245.41687 345.23126 245.745 344.5125Q246.08875 343.79376 246.71375 343.40314Q247.35437 342.9969 248.22937 342.9969Q249.29187 342.9969 249.995 343.6375Q250.71375 344.2625 250.76062 345.29376L249.72937 345.29376Q249.6825 344.66876 249.26062 344.27814Q248.83875 343.8875 248.22937 343.8875Q247.40125 343.8875 246.94812 344.48126Q246.495 345.075 246.495 346.2L246.495 346.40314Q246.495 347.4969 246.94812 348.09064Q247.40125 348.6844 248.22937 348.6844ZM255.60437 348.825Q254.97937 349.575 253.745 349.575Q252.72937 349.575 252.19812 348.98126Q251.66687 348.3875 251.66687 347.23126L251.66687 343.10626L252.745 343.10626L252.745 347.2Q252.745 348.65314 253.91687 348.65314Q255.16687 348.65314 255.57312 347.71564L255.57312 343.10626L256.66687 343.10626L256.66687 349.45L255.63562 349.45L255.60437 348.825ZM261.76062 344.075Q261.51062 344.04376 261.22937 344.04376Q260.15125 344.04376 259.77625 344.95L259.77625 349.45L258.69812 349.45L258.69812 343.10626L259.745 343.10626L259.76062 343.84064Q260.29187 342.9969 261.27625 342.9969Q261.58875 342.9969 261.76062 343.075L261.76062 344.075ZM265.76062 344.075Q265.51062 344.04376 265.22937 344.04376Q264.15125 344.04376 263.77625 344.95L263.77625 349.45L262.69812 349.45L262.69812 343.10626L263.745 343.10626L263.76062 343.84064Q264.29187 342.9969 265.27625 342.9969Q265.58875 342.9969 265.76062 343.075L265.76062 344.075ZM269.32312 349.575Q268.02625 349.575 267.21375 348.73126Q266.41687 347.8719 266.41687 346.45L266.41687 346.2625Q266.41687 345.3094 266.77625 344.575Q267.13562 343.825 267.77625 343.41876Q268.4325 342.9969 269.1825 342.9969Q270.41687 342.9969 271.10437 343.8094Q271.79187 344.6219 271.79187 346.1375L271.79187 346.59064L267.495 346.59064Q267.52625 347.52814 268.04187 348.10626Q268.57312 348.6844 269.38562 348.6844Q269.94812 348.6844 270.33875 348.45Q270.745 348.21564 271.0575 347.825L271.71375 348.34064Q270.91687 349.575 269.32312 349.575ZM269.1825 343.8875Q268.52625 343.8875 268.07312 344.3719Q267.63562 344.84064 267.54187 345.7L270.71375 345.7L270.71375 345.6219Q270.66687 344.79376 270.26062 344.34064Q269.87 343.8875 269.1825 343.8875ZM273.71375 343.10626L273.745 343.90314Q274.47937 342.9969 275.65125 342.9969Q277.66687 342.9969 277.6825 345.2625L277.6825 349.45L276.58875 349.45L276.58875 345.2469Q276.58875 344.575 276.27625 344.2469Q275.97937 343.91876 275.32312 343.91876Q274.79187 343.91876 274.38562 344.2Q273.995 344.48126 273.77625 344.9344L273.77625 349.45L272.69812 349.45L272.69812 343.10626L273.71375 343.10626ZM282.22937 348.6844Q282.8075 348.6844 283.245 348.34064Q283.6825 347.98126 283.72937 347.45L284.76062 347.45Q284.72937 347.9969 284.37 348.4969Q284.02625 348.98126 283.44812 349.27814Q282.88562 349.575 282.22937 349.575Q280.9325 349.575 280.16687 348.71564Q279.41687 347.84064 279.41687 346.34064L279.41687 346.15314Q279.41687 345.23126 279.745 344.5125Q280.08875 343.79376 280.71375 343.40314Q281.35437 342.9969 282.22937 342.9969Q283.29187 342.9969 283.995 343.6375Q284.71375 344.2625 284.76062 345.29376L283.72937 345.29376Q283.6825 344.66876 283.26062 344.27814Q282.83875 343.8875 282.22937 343.8875Q281.40125 343.8875 280.94812 344.48126Q280.495 345.075 280.495 346.2L280.495 346.40314Q280.495 347.4969 280.94812 348.09064Q281.40125 348.6844 282.22937 348.6844ZM287.76062 347.85626L289.245 343.10626L290.40125 343.10626L287.85437 350.4344Q287.26062 352.0125 285.97937 352.0125L285.76062 351.9969L285.37 351.91876L285.37 351.04376L285.65125 351.0594Q286.21375 351.0594 286.51062 350.84064Q286.82312 350.6219 287.02625 350.02814L287.26062 349.3719L284.995 343.10626L286.1825 343.10626L287.76062 347.85626ZM295.995 348.52814L300.04187 348.52814L300.04187 349.45L294.85437 349.45L294.85437 340.91876L295.995 340.91876L295.995 348.52814ZM303.32312 349.575Q302.02625 349.575 301.21375 348.73126Q300.41687 347.8719 300.41687 346.45L300.41687 346.2625Q300.41687 345.3094 300.77625 344.575Q301.13562 343.825 301.77625 343.41876Q302.4325 342.9969 303.1825 342.9969Q304.41687 342.9969 305.10437 343.8094Q305.79187 344.6219 305.79187 346.1375L305.79187 346.59064L301.495 346.59064Q301.52625 347.52814 302.04187 348.10626Q302.57312 348.6844 303.38562 348.6844Q303.94812 348.6844 304.33875 348.45Q304.745 348.21564 305.0575 347.825L305.71375 348.34064Q304.91687 349.575 303.32312 349.575ZM303.1825 343.8875Q302.52625 343.8875 302.07312 344.3719Q301.63562 344.84064 301.54187 345.7L304.71375 345.7L304.71375 345.6219Q304.66687 344.79376 304.26062 344.34064Q303.87 343.8875 303.1825 343.8875ZM308.77625 347.98126L310.35437 343.10626L311.46375 343.10626L309.1825 349.45L308.35437 349.45L306.0575 343.10626L307.16687 343.10626L308.77625 347.98126ZM315.32312 349.575Q314.02625 349.575 313.21375 348.73126Q312.41687 347.8719 312.41687 346.45L312.41687 346.2625Q312.41687 345.3094 312.77625 344.575Q313.13562 343.825 313.77625 343.41876Q314.4325 342.9969 315.1825 342.9969Q316.41687 342.9969 317.10437 343.8094Q317.79187 344.6219 317.79187 346.1375L317.79187 346.59064L313.495 346.59064Q313.52625 347.52814 314.04187 348.10626Q314.57312 348.6844 315.38562 348.6844Q315.94812 348.6844 316.33875 348.45Q316.745 348.21564 317.0575 347.825L317.71375 348.34064Q316.91687 349.575 315.32312 349.575ZM315.1825 343.8875Q314.52625 343.8875 314.07312 344.3719Q313.63562 344.84064 313.54187 345.7L316.71375 345.7L316.71375 345.6219Q316.66687 344.79376 316.26062 344.34064Q315.87 343.8875 315.1825 343.8875ZM319.87 349.45L318.79187 349.45L318.79187 340.45L319.87 340.45L319.87 349.45Z" fill-rule="nonzero"/><path fill="#b7b7b7" d="M25.675013 211.15625L25.675013 212.79688L28.550013 213.29688L28.550013 214.21875L21.440638 212.98438L21.440638 210.84375Q21.456263 209.71875 22.018763 209.14062Q22.565638 208.54688 23.534388 208.64062Q24.206263 208.70312 24.721888 209.14062Q25.221888 209.5625 25.487513 210.28125L28.487513 209.17188L28.550013 209.1875L28.550013 210.15625L25.675013 211.15625ZM24.909388 212.65625L24.909388 211.3125Q24.909388 210.60938 24.534388 210.125Q24.159388 209.64062 23.534388 209.5625Q22.925013 209.48438 22.581263 209.8125Q22.237513 210.125 22.221888 210.78125L22.206263 212.1875L24.909388 212.65625ZM28.643763 206.0625Q28.628138 207.04688 27.925013 207.60938Q27.206263 208.15625 26.112513 208.07812L25.893763 208.04688Q25.112513 207.96875 24.471888 207.59375Q23.815638 207.20312 23.487513 206.65625Q23.159388 206.09375 23.175013 205.45312Q23.190638 204.64062 23.721888 204.1875Q24.237513 203.71875 25.128138 203.67188Q25.440638 203.65625 25.768763 203.6875L26.159388 203.75L26.159388 207.20312Q26.878138 207.28125 27.393763 206.96875Q27.893763 206.64062 27.909388 205.98438Q27.925013 205.20312 27.206263 204.54688L27.643763 204.03125Q28.112513 204.375 28.393763 204.90625Q28.659388 205.42188 28.643763 206.0625ZM23.909388 205.5Q23.893763 206.04688 24.284388 206.45312Q24.659388 206.85938 25.425013 207.10938L25.425013 204.53125L25.346888 204.51562Q24.737513 204.4375 24.331263 204.71875Q23.925013 204.98438 23.909388 205.5ZM23.159388 200.64062Q23.190638 199.75 23.800013 199.28125L23.268763 199.125L23.268763 198.29688L30.581263 199.57812L30.581263 200.45312L28.065638 199.96875Q28.675013 200.60938 28.643763 201.45312Q28.643763 202.1875 28.096888 202.64062Q27.534388 203.07812 26.596888 203.10938Q25.987513 203.14062 25.315638 202.96875Q24.643763 202.79688 24.143763 202.46875Q23.643763 202.125 23.393763 201.65625Q23.143763 201.1875 23.159388 200.64062ZM26.003138 202.20312L26.409388 202.23438Q27.112513 202.25 27.518763 201.98438Q27.909388 201.70312 27.909388 201.1875Q27.940638 200.45312 27.206263 199.875L24.596888 199.40625Q23.925013 199.73438 23.909388 200.46875Q23.893763 201.14062 24.425013 201.59375Q24.940638 202.04688 26.003138 202.20312ZM28.034388 194.0Q28.675013 194.60938 28.643763 195.57812Q28.628138 196.32812 28.112513 196.70312Q27.581263 197.0625 26.675013 196.96875L23.268763 196.39062L23.268763 195.51562L26.690638 196.07812Q26.909388 196.10938 27.112513 196.09375Q27.471888 196.0625 27.675013 195.89062Q27.862513 195.70312 27.878138 195.35938Q27.909388 194.42188 27.112513 193.90625L23.268763 193.23438L23.268763 192.35938L28.550013 193.26562L28.550013 194.10938L28.034388 194.0ZM28.643763 190.0625Q28.628138 191.04688 27.925013 191.60938Q27.206263 192.15625 26.112513 192.07812L25.893763 192.04688Q25.112513 191.96875 24.471888 191.59375Q23.815638 191.20312 23.487513 190.65625Q23.159388 190.09375 23.175013 189.45312Q23.190638 188.64062 23.721888 188.1875Q24.237513 187.71875 25.128138 187.67188Q25.440638 187.65625 25.768763 187.6875L26.159388 187.75L26.159388 191.20312Q26.878138 191.28125 27.393763 190.96875Q27.893763 190.64062 27.909388 189.98438Q27.925013 189.20312 27.206263 188.54688L27.643763 188.03125Q28.112513 188.375 28.393763 188.90625Q28.659388 189.42188 28.643763 190.0625ZM23.909388 189.5Q23.893763 190.04688 24.284388 190.45312Q24.659388 190.85938 25.425013 191.10938L25.425013 188.53125L25.346888 188.51562Q24.737513 188.4375 24.331263 188.71875Q23.925013 188.98438 23.909388 189.5ZM27.112513 184.07812Q26.565638 184.0 26.346888 184.67188L26.081263 185.59375Q25.675013 186.75 24.753138 186.71875Q24.050013 186.6875 23.612513 186.09375Q23.159388 185.48438 23.175013 184.65625Q23.175013 183.85938 23.643763 183.35938Q24.096888 182.85938 24.831263 182.875L24.815638 183.76562Q24.425013 183.75 24.175013 184.01562Q23.925013 184.26562 23.909388 184.70312Q23.909388 185.15625 24.143763 185.48438Q24.362513 185.79688 24.721888 185.84375Q25.175013 185.90625 25.378138 185.28125L25.503138 184.84375Q25.737513 183.9375 26.112513 183.5625Q26.487513 183.17188 27.050013 183.20312Q27.550013 183.23438 27.909388 183.53125Q28.268763 183.8125 28.471888 184.3125Q28.659388 184.79688 28.643763 185.34375Q28.643763 186.1875 28.159388 186.73438Q27.675013 187.28125 26.925013 187.25L26.925013 186.375Q27.362513 186.375 27.643763 186.09375Q27.909388 185.8125 27.909388 185.3125Q27.909388 184.82812 27.706263 184.48438Q27.487513 184.125 27.112513 184.07812ZM21.987513 180.01562L23.268763 180.23438L23.268763 179.28125L23.971888 179.40625L23.971888 180.35938L27.253138 180.90625Q27.378138 180.92188 27.487513 180.90625Q27.862513 180.875 27.862513 180.5Q27.862513 180.34375 27.815638 180.0625L28.550013 180.14062Q28.643763 180.45312 28.643763 180.78125Q28.628138 181.3125 28.253138 181.57812Q27.878138 181.82812 27.237513 181.78125L23.971888 181.23438L23.971888 182.17188L23.268763 182.04688L23.268763 181.125L21.987513 180.89062L21.987513 180.01562ZM27.112513 176.07812Q26.565638 176.0 26.346888 176.67188L26.081263 177.59375Q25.675013 178.75 24.753138 178.71875Q24.050013 178.6875 23.612513 178.09375Q23.159388 177.48438 23.175013 176.65625Q23.175013 175.85938 23.643763 175.35938Q24.096888 174.85938 24.831263 174.875L24.815638 175.76562Q24.425013 175.75 24.175013 176.01562Q23.925013 176.26562 23.909388 176.70312Q23.909388 177.15625 24.143763 177.48438Q24.362513 177.79688 24.721888 177.84375Q25.175013 177.90625 25.378138 177.28125L25.503138 176.84375Q25.737513 175.9375 26.112513 175.5625Q26.487513 175.17188 27.050013 175.20312Q27.550013 175.23438 27.909388 175.53125Q28.268763 175.8125 28.471888 176.3125Q28.659388 176.79688 28.643763 177.34375Q28.643763 178.1875 28.159388 178.73438Q27.675013 179.28125 26.925013 179.25L26.925013 178.375Q27.362513 178.375 27.643763 178.09375Q27.909388 177.8125 27.909388 177.3125Q27.909388 176.82812 27.706263 176.48438Q27.487513 176.125 27.112513 176.07812ZM25.768763 170.8125L28.550013 171.29688L28.550013 172.21875L21.440638 170.96875L21.440638 168.60938Q21.440638 167.5 22.034388 166.90625Q22.612513 166.3125 23.581263 166.39062Q24.596888 166.48438 25.190638 167.21875Q25.768763 167.9375 25.768763 169.125L25.768763 170.8125ZM25.003138 170.67188L25.003138 169.09375Q25.003138 168.34375 24.628138 167.875Q24.253138 167.39062 23.581263 167.3125Q22.987513 167.23438 22.612513 167.5625Q22.237513 167.89062 22.221888 168.51562L22.206263 170.1875L25.003138 170.67188ZM28.643763 164.0625Q28.628138 165.04688 27.925013 165.60938Q27.206263 166.15625 26.112513 166.07812L25.893763 166.04688Q25.112513 165.96875 24.471888 165.59375Q23.815638 165.20312 23.487513 164.65625Q23.159388 164.09375 23.175013 163.45312Q23.190638 162.64062 23.721888 162.1875Q24.237513 161.71875 25.128138 161.67188Q25.440638 161.65625 25.768763 161.6875L26.159388 161.75L26.159388 165.20312Q26.878138 165.28125 27.393763 164.96875Q27.893763 164.64062 27.909388 163.98438Q27.925013 163.20312 27.206263 162.54688L27.643763 162.03125Q28.112513 162.375 28.393763 162.90625Q28.659388 163.42188 28.643763 164.0625ZM23.909388 163.5Q23.893763 164.04688 24.284388 164.45312Q24.659388 164.85938 25.425013 165.10938L25.425013 162.53125L25.346888 162.51562Q24.737513 162.4375 24.331263 162.71875Q23.925013 162.98438 23.909388 163.5ZM24.065638 158.0625L24.034388 158.48438Q24.034388 159.32812 24.800013 159.8125L28.550013 160.46875L28.550013 161.34375L23.268763 160.4375L23.268763 159.57812L23.878138 159.70312Q23.143763 159.14062 23.159388 158.39062Q23.159388 158.21875 23.237513 157.96875L24.065638 158.0625ZM26.721888 152.21875Q25.940638 152.10938 25.581263 153.03125L25.268763 153.875L25.143763 154.15625Q24.503138 155.57812 23.315638 155.48438Q22.721888 155.4375 22.268763 155.09375Q21.815638 154.73438 21.581263 154.14062Q21.331263 153.54688 21.346888 152.89062Q21.362513 152.23438 21.643763 151.73438Q21.909388 151.23438 22.393763 150.96875Q22.878138 150.70312 23.503138 150.73438L23.503138 151.65625Q22.846888 151.60938 22.487513 151.95312Q22.128138 152.29688 22.112513 152.92188Q22.096888 153.59375 22.425013 154.04688Q22.753138 154.5 23.300013 154.5625Q24.034388 154.65625 24.409388 153.67188L24.675013 152.9375L24.831263 152.57812Q25.456263 151.20312 26.706263 151.29688Q27.315638 151.35938 27.753138 151.71875Q28.190638 152.0625 28.425013 152.67188Q28.659388 153.26562 28.643763 153.95312Q28.643763 154.625 28.362513 155.1875Q28.081263 155.73438 27.596888 156.03125Q27.096888 156.3125 26.487513 156.28125L26.487513 155.35938Q27.128138 155.40625 27.503138 155.01562Q27.878138 154.625 27.893763 153.92188Q27.893763 153.20312 27.581263 152.75Q27.253138 152.29688 26.721888 152.21875ZM28.643763 148.0625Q28.628138 149.04688 27.925013 149.60938Q27.206263 150.15625 26.112513 150.07812L25.893763 150.04688Q25.112513 149.96875 24.471888 149.59375Q23.815638 149.20312 23.487513 148.65625Q23.159388 148.09375 23.175013 147.45312Q23.190638 146.64062 23.721888 146.1875Q24.237513 145.71875 25.128138 145.67188Q25.440638 145.65625 25.768763 145.6875L26.159388 145.75L26.159388 149.20312Q26.878138 149.28125 27.393763 148.96875Q27.893763 148.64062 27.909388 147.98438Q27.925013 147.20312 27.206263 146.54688L27.643763 146.03125Q28.112513 146.375 28.393763 146.90625Q28.659388 147.42188 28.643763 148.0625ZM23.909388 147.5Q23.893763 148.04688 24.284388 148.45312Q24.659388 148.85938 25.425013 149.10938L25.425013 146.53125L25.346888 146.51562Q24.737513 146.4375 24.331263 146.71875Q23.925013 146.98438 23.909388 147.5ZM27.909388 143.10938Q27.925013 142.64062 27.643763 142.26562Q27.346888 141.875 26.893763 141.76562L26.878138 140.92188Q27.378138 141.0 27.800013 141.32812Q28.206263 141.65625 28.440638 142.15625Q28.659388 142.64062 28.643763 143.15625Q28.643763 143.8125 28.315638 144.28125Q27.971888 144.73438 27.378138 144.95312Q26.768763 145.15625 26.018763 145.09375L25.784388 145.0625Q25.018763 144.96875 24.425013 144.625Q23.815638 144.26562 23.487513 143.70312Q23.143763 143.14062 23.175013 142.45312Q23.190638 141.625 23.737513 141.125Q24.268763 140.625 25.081263 140.625L25.081263 141.45312Q24.565638 141.46875 24.253138 141.75Q23.925013 142.01562 23.909388 142.48438Q23.893763 143.1875 24.425013 143.64062Q24.940638 144.09375 25.893763 144.20312L26.018763 144.21875Q26.331263 144.25 26.659388 144.23438Q27.237513 144.20312 27.565638 143.92188Q27.893763 143.625 27.909388 143.10938ZM23.175013 137.40625Q23.175013 136.75 23.534388 136.28125Q23.878138 135.79688 24.503138 135.57812Q25.112513 135.34375 25.846888 135.42188L25.956263 135.4375Q26.721888 135.53125 27.346888 135.89062Q27.971888 136.25 28.331263 136.84375Q28.675013 137.42188 28.643763 138.10938Q28.643763 138.76562 28.300013 139.25Q27.940638 139.71875 27.331263 139.9375Q26.721888 140.15625 26.003138 140.09375Q25.175013 140.03125 24.518763 139.65625Q23.862513 139.28125 23.503138 138.70312Q23.143763 138.10938 23.175013 137.40625ZM26.003138 139.20312Q26.315638 139.25 26.643763 139.20312Q27.221888 139.15625 27.565638 138.875Q27.893763 138.57812 27.909388 138.07812Q27.925013 137.64062 27.706263 137.26562Q27.471888 136.89062 27.003138 136.64062Q26.534388 136.39062 25.956263 136.3125Q25.503138 136.28125 25.206263 136.29688Q24.612513 136.35938 24.268763 136.65625Q23.925013 136.95312 23.909388 137.45312Q23.893763 138.125 24.440638 138.60938Q24.987513 139.09375 25.893763 139.20312L26.003138 139.20312ZM23.268763 132.59375L23.925013 132.71875Q23.143763 132.01562 23.175013 131.09375Q23.190638 130.35938 23.690638 130.0Q24.190638 129.64062 25.081263 129.73438L28.550013 130.3125L28.550013 131.1875L25.065638 130.60938Q24.831263 130.57812 24.628138 130.60938Q23.940638 130.6875 23.925013 131.40625Q23.909388 132.20312 24.784388 132.8125L28.550013 133.46875L28.550013 134.34375L23.268763 133.4375L23.268763 132.59375ZM25.893763 129.09375Q25.096888 129.0 24.456263 128.65625Q23.800013 128.29688 23.471888 127.796875Q23.143763 127.28125 23.159388 126.671875Q23.190638 125.796875 23.815638 125.3125L21.050013 124.8125L21.050013 123.921875L28.550013 125.234375L28.550013 126.03125L27.987513 125.9375Q28.675013 126.5625 28.643763 127.484375Q28.628138 128.21875 28.081263 128.65625Q27.518763 129.07812 26.581263 129.125Q26.300013 129.14062 25.893763 129.09375ZM26.409388 128.25Q27.096888 128.26562 27.487513 128.0Q27.878138 127.734375 27.878138 127.21875Q27.925013 126.453125 27.112513 125.859375L24.675013 125.4375Q23.956263 125.734375 23.925013 126.5Q23.909388 127.03125 24.253138 127.4375Q24.581263 127.828125 25.175013 128.03125Q25.768763 128.23438 26.409388 128.25Z" fill-rule="nonzero"/><path fill="#b7b7b7" d="M75.59688 298.91876Q75.59688 300.4969 75.05 301.27814Q74.51875 302.04376 73.3625 302.04376Q72.22188 302.04376 71.675 301.29376Q71.12813 300.54376 71.1125 299.04376L71.1125 297.84064Q71.1125 296.2625 71.64375 295.5125Q72.19063 294.7469 73.34688 294.7469Q74.50313 294.7469 75.03438 295.48126Q75.58125 296.21564 75.59688 297.7469L75.59688 298.91876ZM74.69063 297.6844Q74.69063 296.52814 74.3625 296.0125Q74.05 295.48126 73.34688 295.48126Q72.65938 295.48126 72.33125 296.0125Q72.01875 296.52814 72.01875 297.60626L72.01875 299.0594Q72.01875 300.21564 72.34688 300.7625Q72.69063 301.3094 73.3625 301.3094Q74.03438 301.3094 74.34688 300.79376Q74.675 300.27814 74.69063 299.16876L74.69063 297.6844Z" fill-rule="nonzero"/><path fill="#b7b7b7" d="M51.8 210.81667L47.14375 210.81667L47.14375 210.16042L49.596874 207.42604Q50.14375 206.81667 50.346874 206.42604Q50.565624 206.03542 50.565624 205.61354Q50.565624 205.06667 50.221874 204.70729Q49.89375 204.34792 49.33125 204.34792Q48.659374 204.34792 48.284374 204.73854Q47.909374 205.11354 47.909374 205.80104L47.003124 205.80104Q47.003124 204.81667 47.628124 204.22292Q48.26875 203.61354 49.33125 203.61354Q50.315624 203.61354 50.89375 204.12917Q51.471874 204.64479 51.471874 205.51979Q51.471874 206.56667 50.128124 208.01979L48.2375 210.08229L51.8 210.08229L51.8 210.81667ZM57.596874 207.78542Q57.596874 209.36354 57.05 210.14479Q56.51875 210.91042 55.3625 210.91042Q54.221874 210.91042 53.675 210.16042Q53.128124 209.41042 53.1125 207.91042L53.1125 206.70729Q53.1125 205.12917 53.64375 204.37917Q54.190624 203.61354 55.346874 203.61354Q56.503124 203.61354 57.034374 204.34792Q57.58125 205.08229 57.596874 206.61354L57.596874 207.78542ZM56.690624 206.55104Q56.690624 205.39479 56.3625 204.87917Q56.05 204.34792 55.346874 204.34792Q54.659374 204.34792 54.33125 204.87917Q54.01875 205.39479 54.01875 206.47292L54.01875 207.92604Q54.01875 209.08229 54.346874 209.62917Q54.690624 210.17604 55.3625 210.17604Q56.034374 210.17604 56.346874 209.66042Q56.675 209.14479 56.690624 208.03542L56.690624 206.55104ZM63.596874 207.78542Q63.596874 209.36354 63.05 210.14479Q62.51875 210.91042 61.3625 210.91042Q60.221874 210.91042 59.675 210.16042Q59.128124 209.41042 59.1125 207.91042L59.1125 206.70729Q59.1125 205.12917 59.64375 204.37917Q60.190624 203.61354 61.346874 203.61354Q62.503124 203.61354 63.034374 204.34792Q63.58125 205.08229 63.596874 206.61354L63.596874 207.78542ZM62.690624 206.55104Q62.690624 205.39479 62.3625 204.87917Q62.05 204.34792 61.346874 204.34792Q60.659374 204.34792 60.33125 204.87917Q60.01875 205.39479 60.01875 206.47292L60.01875 207.92604Q60.01875 209.08229 60.346874 209.62917Q60.690624 210.17604 61.3625 210.17604Q62.034374 210.17604 62.346874 209.66042Q62.675 209.14479 62.690624 208.03542L62.690624 206.55104ZM69.59688 207.78542Q69.59688 209.36354 69.05 210.14479Q68.51875 210.91042 67.3625 210.91042Q66.22188 210.91042 65.675 210.16042Q65.12813 209.41042 65.1125 207.91042L65.1125 206.70729Q65.1125 205.12917 65.64375 204.37917Q66.19063 203.61354 67.34688 203.61354Q68.50313 203.61354 69.03438 204.34792Q69.58125 205.08229 69.59688 206.61354L69.59688 207.78542ZM68.69063 206.55104Q68.69063 205.39479 68.3625 204.87917Q68.05 204.34792 67.34688 204.34792Q66.65938 204.34792 66.33125 204.87917Q66.01875 205.39479 66.01875 206.47292L66.01875 207.92604Q66.01875 209.08229 66.34688 209.62917Q66.69063 210.17604 67.3625 210.17604Q68.03438 210.17604 68.34688 209.66042Q68.675 209.14479 68.69063 208.03542L68.69063 206.55104ZM75.59688 207.78542Q75.59688 209.36354 75.05 210.14479Q74.51875 210.91042 73.3625 210.91042Q72.22188 210.91042 71.675 210.16042Q71.12813 209.41042 71.1125 207.91042L71.1125 206.70729Q71.1125 205.12917 71.64375 204.37917Q72.19063 203.61354 73.34688 203.61354Q74.50313 203.61354 75.03438 204.34792Q75.58125 205.08229 75.59688 206.61354L75.59688 207.78542ZM74.69063 206.55104Q74.69063 205.39479 74.3625 204.87917Q74.05 204.34792 73.34688 204.34792Q72.65938 204.34792 72.33125 204.87917Q72.01875 205.39479 72.01875 206.47292L72.01875 207.92604Q72.01875 209.08229 72.34688 209.62917Q72.69063 210.17604 73.3625 210.17604Q74.03438 210.17604 74.34688 209.66042Q74.675 209.14479 74.69063 208.03542L74.69063 206.55104Z" fill-rule="nonzero"/><path fill="#b7b7b7" d="M50.95625 117.29271L51.940624 117.29271L51.940624 118.027084L50.95625 118.027084L50.95625 119.683334L50.05 119.683334L50.05 118.027084L46.815624 118.027084L46.815624 117.495834L49.9875 112.57396L50.95625 112.57396L50.95625 117.29271ZM47.83125 117.29271L50.05 117.29271L50.05 113.808334L49.940624 114.01146L47.83125 117.29271ZM57.596874 116.652084Q57.596874 118.23021 57.05 119.01146Q56.51875 119.777084 55.3625 119.777084Q54.221874 119.777084 53.675 119.027084Q53.128124 118.277084 53.1125 116.777084L53.1125 115.57396Q53.1125 113.995834 53.64375 113.245834Q54.190624 112.48021 55.346874 112.48021Q56.503124 112.48021 57.034374 113.214584Q57.58125 113.94896 57.596874 115.48021L57.596874 116.652084ZM56.690624 115.41771Q56.690624 114.26146 56.3625 113.745834Q56.05 113.214584 55.346874 113.214584Q54.659374 113.214584 54.33125 113.745834Q54.01875 114.26146 54.01875 115.339584L54.01875 116.79271Q54.01875 117.94896 54.346874 118.495834Q54.690624 119.04271 55.3625 119.04271Q56.034374 119.04271 56.346874 118.527084Q56.675 118.01146 56.690624 116.902084L56.690624 115.41771ZM63.596874 116.652084Q63.596874 118.23021 63.05 119.01146Q62.51875 119.777084 61.3625 119.777084Q60.221874 119.777084 59.675 119.027084Q59.128124 118.277084 59.1125 116.777084L59.1125 115.57396Q59.1125 113.995834 59.64375 113.245834Q60.190624 112.48021 61.346874 112.48021Q62.503124 112.48021 63.034374 113.214584Q63.58125 113.94896 63.596874 115.48021L63.596874 116.652084ZM62.690624 115.41771Q62.690624 114.26146 62.3625 113.745834Q62.05 113.214584 61.346874 113.214584Q60.659374 113.214584 60.33125 113.745834Q60.01875 114.26146 60.01875 115.339584L60.01875 116.79271Q60.01875 117.94896 60.346874 118.495834Q60.690624 119.04271 61.3625 119.04271Q62.034374 119.04271 62.346874 118.527084Q62.675 118.01146 62.690624 116.902084L62.690624 115.41771ZM69.59688 116.652084Q69.59688 118.23021 69.05 119.01146Q68.51875 119.777084 67.3625 119.777084Q66.22188 119.777084 65.675 119.027084Q65.12813 118.277084 65.1125 116.777084L65.1125 115.57396Q65.1125 113.995834 65.64375 113.245834Q66.19063 112.48021 67.34688 112.48021Q68.50313 112.48021 69.03438 113.214584Q69.58125 113.94896 69.59688 115.48021L69.59688 116.652084ZM68.69063 115.41771Q68.69063 114.26146 68.3625 113.745834Q68.05 113.214584 67.34688 113.214584Q66.65938 113.214584 66.33125 113.745834Q66.01875 114.26146 66.01875 115.339584L66.01875 116.79271Q66.01875 117.94896 66.34688 118.495834Q66.69063 119.04271 67.3625 119.04271Q68.03438 119.04271 68.34688 118.527084Q68.675 118.01146 68.69063 116.902084L68.69063 115.41771ZM75.59688 116.652084Q75.59688 118.23021 75.05 119.01146Q74.51875 119.777084 73.3625 119.777084Q72.22188 119.777084 71.675 119.027084Q71.12813 118.277084 71.1125 116.777084L71.1125 115.57396Q71.1125 113.995834 71.64375 113.245834Q72.19063 112.48021 73.34688 112.48021Q74.50313 112.48021 75.03438 113.214584Q75.58125 113.94896 75.59688 115.48021L75.59688 116.652084ZM74.69063 115.41771Q74.69063 114.26146 74.3625 113.745834Q74.05 113.214584 73.34688 113.214584Q72.65938 113.214584 72.33125 113.745834Q72.01875 114.26146 72.01875 115.339584L72.01875 116.79271Q72.01875 117.94896 72.34688 118.495834Q72.69063 119.04271 73.3625 119.04271Q74.03438 119.04271 74.34688 118.527084Q74.675 118.01146 74.69063 116.902084L74.69063 115.41771Z" fill-rule="nonzero"/><path fill="#b7b7b7" d="M50.690624 21.440624L50.690624 22.20625L50.51875 22.20625Q49.471874 22.221874 48.846874 22.83125Q48.221874 23.425 48.1125 24.534374Q48.675 23.89375 49.64375 23.89375Q50.58125 23.89375 51.128124 24.55Q51.690624 25.190624 51.690624 26.2375Q51.690624 27.33125 51.08125 27.9875Q50.4875 28.64375 49.4875 28.64375Q48.471874 28.64375 47.83125 27.8625Q47.190624 27.08125 47.190624 25.846874L47.190624 25.503124Q47.190624 23.534374 48.01875 22.503124Q48.8625 21.45625 50.51875 21.440624L50.690624 21.440624ZM49.503124 24.64375Q49.034374 24.64375 48.64375 24.925Q48.253124 25.190624 48.096874 25.6125L48.096874 25.940624Q48.096874 26.83125 48.4875 27.3625Q48.89375 27.89375 49.4875 27.89375Q50.096874 27.89375 50.440624 27.45625Q50.8 27.003124 50.8 26.26875Q50.8 25.534374 50.440624 25.096874Q50.08125 24.64375 49.503124 24.64375ZM57.596874 25.51875Q57.596874 27.096874 57.05 27.878124Q56.51875 28.64375 55.3625 28.64375Q54.221874 28.64375 53.675 27.89375Q53.128124 27.14375 53.1125 25.64375L53.1125 24.440624Q53.1125 22.8625 53.64375 22.1125Q54.190624 21.346874 55.346874 21.346874Q56.503124 21.346874 57.034374 22.08125Q57.58125 22.815624 57.596874 24.346874L57.596874 25.51875ZM56.690624 24.284374Q56.690624 23.128124 56.3625 22.6125Q56.05 22.08125 55.346874 22.08125Q54.659374 22.08125 54.33125 22.6125Q54.01875 23.128124 54.01875 24.20625L54.01875 25.659374Q54.01875 26.815624 54.346874 27.3625Q54.690624 27.909374 55.3625 27.909374Q56.034374 27.909374 56.346874 27.39375Q56.675 26.878124 56.690624 25.76875L56.690624 24.284374ZM63.596874 25.51875Q63.596874 27.096874 63.05 27.878124Q62.51875 28.64375 61.3625 28.64375Q60.221874 28.64375 59.675 27.89375Q59.128124 27.14375 59.1125 25.64375L59.1125 24.440624Q59.1125 22.8625 59.64375 22.1125Q60.190624 21.346874 61.346874 21.346874Q62.503124 21.346874 63.034374 22.08125Q63.58125 22.815624 63.596874 24.346874L63.596874 25.51875ZM62.690624 24.284374Q62.690624 23.128124 62.3625 22.6125Q62.05 22.08125 61.346874 22.08125Q60.659374 22.08125 60.33125 22.6125Q60.01875 23.128124 60.01875 24.20625L60.01875 25.659374Q60.01875 26.815624 60.346874 27.3625Q60.690624 27.909374 61.3625 27.909374Q62.034374 27.909374 62.346874 27.39375Q62.675 26.878124 62.690624 25.76875L62.690624 24.284374ZM69.59688 25.51875Q69.59688 27.096874 69.05 27.878124Q68.51875 28.64375 67.3625 28.64375Q66.22188 28.64375 65.675 27.89375Q65.12813 27.14375 65.1125 25.64375L65.1125 24.440624Q65.1125 22.8625 65.64375 22.1125Q66.19063 21.346874 67.34688 21.346874Q68.50313 21.346874 69.03438 22.08125Q69.58125 22.815624 69.59688 24.346874L69.59688 25.51875ZM68.69063 24.284374Q68.69063 23.128124 68.3625 22.6125Q68.05 22.08125 67.34688 22.08125Q66.65938 22.08125 66.33125 22.6125Q66.01875 23.128124 66.01875 24.20625L66.01875 25.659374Q66.01875 26.815624 66.34688 27.3625Q66.69063 27.909374 67.3625 27.909374Q68.03438 27.909374 68.34688 27.39375Q68.675 26.878124 68.69063 25.76875L68.69063 24.284374ZM75.59688 25.51875Q75.59688 27.096874 75.05 27.878124Q74.51875 28.64375 73.3625 28.64375Q72.22188 28.64375 71.675 27.89375Q71.12813 27.14375 71.1125 25.64375L71.1125 24.440624Q71.1125 22.8625 71.64375 22.1125Q72.19063 21.346874 73.34688 21.346874Q74.50313 21.346874 75.03438 22.08125Q75.58125 22.815624 75.59688 24.346874L75.59688 25.51875ZM74.69063 24.284374Q74.69063 23.128124 74.3625 22.6125Q74.05 22.08125 73.34688 22.08125Q72.65938 22.08125 72.33125 22.6125Q72.01875 23.128124 72.01875 24.20625L72.01875 25.659374Q72.01875 26.815624 72.34688 27.3625Q72.69063 27.909374 73.3625 27.909374Q74.03438 27.909374 74.34688 27.39375Q74.675 26.878124 74.69063 25.76875L74.69063 24.284374Z" fill-rule="nonzero"/><path fill="#000000" d="M119.27736 316.45L118.199234 316.45L118.199234 309.23126L116.011734 310.02814L116.011734 309.04376L119.12111 307.8719L119.27736 307.8719L119.27736 316.45ZM128.07423 312.8094Q128.07423 314.71564 127.417984 315.65314Q126.77736 316.575 125.386734 316.575Q124.02736 316.575 123.37111 315.66876Q122.71486 314.7625 122.68361 312.95L122.68361 311.5125Q122.68361 309.6219 123.324234 308.71564Q123.980484 307.79376 125.37111 307.79376Q126.74611 307.79376 127.40236 308.6844Q128.05861 309.5594 128.07423 311.40314L128.07423 312.8094ZM126.980484 311.325Q126.980484 309.95 126.58986 309.325Q126.21486 308.6844 125.37111 308.6844Q124.542984 308.6844 124.15236 309.325Q123.77736 309.95 123.77736 311.2469L123.77736 312.98126Q123.77736 314.35626 124.167984 315.02814Q124.574234 315.6844 125.386734 315.6844Q126.18361 315.6844 126.574234 315.0594Q126.96486 314.4344 126.980484 313.10626L126.980484 311.325Z" fill-rule="nonzero"/><path fill="#000000" d="M181.2519 316.45L175.65816 316.45L175.65816 315.66876L178.61128 312.3875Q179.26753 311.6375 179.51753 311.1844Q179.76753 310.71564 179.76753 310.21564Q179.76753 309.54376 179.36128 309.1219Q178.97066 308.6844 178.28316 308.6844Q177.48628 308.6844 177.03316 309.15314Q176.58003 309.60626 176.58003 310.4344L175.5019 310.4344Q175.5019 309.2469 176.2519 308.52814Q177.01753 307.79376 178.28316 307.79376Q179.48628 307.79376 180.17378 308.41876Q180.86128 309.04376 180.86128 310.09064Q180.86128 311.34064 179.2519 313.09064L176.97066 315.5594L181.2519 315.5594L181.2519 316.45ZM183.15816 312.16876L183.59566 307.91876L187.97066 307.91876L187.97066 308.91876L184.51753 308.91876L184.2519 311.2469Q184.89253 310.8719 185.6894 310.8719Q186.84566 310.8719 187.53316 311.65314Q188.22066 312.41876 188.22066 313.73126Q188.22066 315.04376 187.5019 315.8094Q186.79878 316.575 185.51753 316.575Q184.39253 316.575 183.67378 315.95Q182.95503 315.3094 182.86128 314.2L183.8769 314.2Q183.98628 314.9344 184.40816 315.3094Q184.83003 315.6844 185.51753 315.6844Q186.26753 315.6844 186.70503 315.16876Q187.14253 314.65314 187.14253 313.7469Q187.14253 312.8875 186.67378 312.3719Q186.20503 311.85626 185.42378 311.85626Q184.72066 311.85626 184.3144 312.15314L184.03316 312.3875L183.15816 312.16876Z" fill-rule="nonzero"/><path fill="#000000" d="M236.10147 312.16876L236.53897 307.91876L240.91397 307.91876L240.91397 308.91876L237.46085 308.91876L237.19522 311.2469Q237.83585 310.8719 238.63272 310.8719Q239.78897 310.8719 240.47647 311.65314Q241.16397 312.41876 241.16397 313.73126Q241.16397 315.04376 240.44522 315.8094Q239.7421 316.575 238.46085 316.575Q237.33585 316.575 236.6171 315.95Q235.89835 315.3094 235.8046 314.2L236.82022 314.2Q236.9296 314.9344 237.35147 315.3094Q237.77335 315.6844 238.46085 315.6844Q239.21085 315.6844 239.64835 315.16876Q240.08585 314.65314 240.08585 313.7469Q240.08585 312.8875 239.6171 312.3719Q239.14835 311.85626 238.3671 311.85626Q237.66397 311.85626 237.25772 312.15314L236.97647 312.3875L236.10147 312.16876ZM247.96085 312.8094Q247.96085 314.71564 247.3046 315.65314Q246.66397 316.575 245.27335 316.575Q243.91397 316.575 243.25772 315.66876Q242.60147 314.7625 242.57022 312.95L242.57022 311.5125Q242.57022 309.6219 243.21085 308.71564Q243.8671 307.79376 245.25772 307.79376Q246.63272 307.79376 247.28897 308.6844Q247.94522 309.5594 247.96085 311.40314L247.96085 312.8094ZM246.8671 311.325Q246.8671 309.95 246.47647 309.325Q246.10147 308.6844 245.25772 308.6844Q244.4296 308.6844 244.03897 309.325Q243.66397 309.95 243.66397 311.2469L243.66397 312.98126Q243.66397 314.35626 244.0546 315.02814Q244.46085 315.6844 245.27335 315.6844Q246.07022 315.6844 246.46085 315.0594Q246.85147 314.4344 246.8671 313.10626L246.8671 311.325Z" fill-rule="nonzero"/><path fill="#000000" d="M295.60727 316.45L294.52914 316.45L294.52914 309.23126L292.34164 310.02814L292.34164 309.04376L295.45102 307.8719L295.60727 307.8719L295.60727 316.45ZM304.40414 312.8094Q304.40414 314.71564 303.7479 315.65314Q303.10727 316.575 301.71664 316.575Q300.35727 316.575 299.70102 315.66876Q299.04477 314.7625 299.01352 312.95L299.01352 311.5125Q299.01352 309.6219 299.65414 308.71564Q300.3104 307.79376 301.70102 307.79376Q303.07602 307.79376 303.73227 308.6844Q304.38852 309.5594 304.40414 311.40314L304.40414 312.8094ZM303.3104 311.325Q303.3104 309.95 302.91977 309.325Q302.54477 308.6844 301.70102 308.6844Q300.8729 308.6844 300.48227 309.325Q300.10727 309.95 300.10727 311.2469L300.10727 312.98126Q300.10727 314.35626 300.4979 315.02814Q300.90414 315.6844 301.71664 315.6844Q302.51352 315.6844 302.90414 315.0594Q303.29477 314.4344 303.3104 313.10626L303.3104 311.325ZM311.40414 312.8094Q311.40414 314.71564 310.7479 315.65314Q310.10727 316.575 308.71664 316.575Q307.35727 316.575 306.70102 315.66876Q306.04477 314.7625 306.01352 312.95L306.01352 311.5125Q306.01352 309.6219 306.65414 308.71564Q307.3104 307.79376 308.70102 307.79376Q310.07602 307.79376 310.73227 308.6844Q311.38852 309.5594 311.40414 311.40314L311.40414 312.8094ZM310.3104 311.325Q310.3104 309.95 309.91977 309.325Q309.54477 308.6844 308.70102 308.6844Q307.8729 308.6844 307.48227 309.325Q307.10727 309.95 307.10727 311.2469L307.10727 312.98126Q307.10727 314.35626 307.4979 315.02814Q307.90414 315.6844 308.71664 315.6844Q309.51352 315.6844 309.90414 315.0594Q310.29477 314.4344 310.3104 313.10626L310.3104 311.325Z" fill-rule="nonzero"/><path fill="#000000" d="M352.4881 312.16876L352.9256 307.91876L357.3006 307.91876L357.3006 308.91876L353.84747 308.91876L353.58185 311.2469Q354.22247 310.8719 355.01935 310.8719Q356.1756 310.8719 356.8631 311.65314Q357.5506 312.41876 357.5506 313.73126Q357.5506 315.04376 356.83185 315.8094Q356.12872 316.575 354.84747 316.575Q353.72247 316.575 353.00372 315.95Q352.28497 315.3094 352.19122 314.2L353.20685 314.2Q353.31622 314.9344 353.7381 315.3094Q354.15997 315.6844 354.84747 315.6844Q355.59747 315.6844 356.03497 315.16876Q356.47247 314.65314 356.47247 313.7469Q356.47247 312.8875 356.00372 312.3719Q355.53497 311.85626 354.75372 311.85626Q354.0506 311.85626 353.64435 312.15314L353.3631 312.3875L352.4881 312.16876ZM364.34747 312.8094Q364.34747 314.71564 363.69122 315.65314Q363.0506 316.575 361.65997 316.575Q360.3006 316.575 359.64435 315.66876Q358.9881 314.7625 358.95685 312.95L358.95685 311.5125Q358.95685 309.6219 359.59747 308.71564Q360.25372 307.79376 361.64435 307.79376Q363.01935 307.79376 363.6756 308.6844Q364.33185 309.5594 364.34747 311.40314L364.34747 312.8094ZM363.25372 311.325Q363.25372 309.95 362.8631 309.325Q362.4881 308.6844 361.64435 308.6844Q360.81622 308.6844 360.4256 309.325Q360.0506 309.95 360.0506 311.2469L360.0506 312.98126Q360.0506 314.35626 360.44122 315.02814Q360.84747 315.6844 361.65997 315.6844Q362.45685 315.6844 362.84747 315.0594Q363.2381 314.4344 363.25372 313.10626L363.25372 311.325ZM371.34747 312.8094Q371.34747 314.71564 370.69122 315.65314Q370.0506 316.575 368.65997 316.575Q367.3006 316.575 366.64435 315.66876Q365.9881 314.7625 365.95685 312.95L365.95685 311.5125Q365.95685 309.6219 366.59747 308.71564Q367.25372 307.79376 368.64435 307.79376Q370.01935 307.79376 370.6756 308.6844Q371.33185 309.5594 371.34747 311.40314L371.34747 312.8094ZM370.25372 311.325Q370.25372 309.95 369.8631 309.325Q369.4881 308.6844 368.64435 308.6844Q367.81622 308.6844 367.4256 309.325Q367.0506 309.95 367.0506 311.2469L367.0506 312.98126Q367.0506 314.35626 367.44122 315.02814Q367.84747 315.6844 368.65997 315.6844Q369.45685 315.6844 369.84747 315.0594Q370.2381 314.4344 370.25372 313.10626L370.25372 311.325Z" fill-rule="nonzero"/><path fill="#000000" d="M411.9939 316.45L410.91577 316.45L410.91577 309.23126L408.72827 310.02814L408.72827 309.04376L411.83765 307.8719L411.9939 307.8719L411.9939 316.45ZM420.79077 312.8094Q420.79077 314.71564 420.13452 315.65314Q419.4939 316.575 418.10327 316.575Q416.7439 316.575 416.08765 315.66876Q415.4314 314.7625 415.40015 312.95L415.40015 311.5125Q415.40015 309.6219 416.04077 308.71564Q416.69702 307.79376 418.08765 307.79376Q419.46265 307.79376 420.1189 308.6844Q420.77515 309.5594 420.79077 311.40314L420.79077 312.8094ZM419.69702 311.325Q419.69702 309.95 419.3064 309.325Q418.9314 308.6844 418.08765 308.6844Q417.25952 308.6844 416.8689 309.325Q416.4939 309.95 416.4939 311.2469L416.4939 312.98126Q416.4939 314.35626 416.88452 315.02814Q417.29077 315.6844 418.10327 315.6844Q418.90015 315.6844 419.29077 315.0594Q419.6814 314.4344 419.69702 313.10626L419.69702 311.325ZM427.79077 312.8094Q427.79077 314.71564 427.13452 315.65314Q426.4939 316.575 425.10327 316.575Q423.7439 316.575 423.08765 315.66876Q422.4314 314.7625 422.40015 312.95L422.40015 311.5125Q422.40015 309.6219 423.04077 308.71564Q423.69702 307.79376 425.08765 307.79376Q426.46265 307.79376 427.1189 308.6844Q427.77515 309.5594 427.79077 311.40314L427.79077 312.8094ZM426.69702 311.325Q426.69702 309.95 426.3064 309.325Q425.9314 308.6844 425.08765 308.6844Q424.25952 308.6844 423.8689 309.325Q423.4939 309.95 423.4939 311.2469L423.4939 312.98126Q423.4939 314.35626 423.88452 315.02814Q424.29077 315.6844 425.10327 315.6844Q425.90015 315.6844 426.29077 315.0594Q426.6814 314.4344 426.69702 313.10626L426.69702 311.325ZM434.79077 312.8094Q434.79077 314.71564 434.13452 315.65314Q433.4939 316.575 432.10327 316.575Q430.7439 316.575 430.08765 315.66876Q429.4314 314.7625 429.40015 312.95L429.40015 311.5125Q429.40015 309.6219 430.04077 308.71564Q430.69702 307.79376 432.08765 307.79376Q433.46265 307.79376 434.1189 308.6844Q434.77515 309.5594 434.79077 311.40314L434.79077 312.8094ZM433.69702 311.325Q433.69702 309.95 433.3064 309.325Q432.9314 308.6844 432.08765 308.6844Q431.25952 308.6844 430.8689 309.325Q430.4939 309.95 430.4939 311.2469L430.4939 312.98126Q430.4939 314.35626 430.88452 315.02814Q431.29077 315.6844 432.10327 315.6844Q432.90015 315.6844 433.29077 315.0594Q433.6814 314.4344 433.69702 313.10626L433.69702 311.325Z" fill-rule="nonzero"/><path fill="#4a86e8" d="M484.45 20.55C484.45 19.997715 484.8977 19.55 485.45 19.55L495.45 19.55C496.0023 19.55 496.45 19.997715 496.45 20.55L496.45 30.55C496.45 31.102285 496.0023 31.55 495.45 31.55L485.45 31.55C484.8977 31.55 484.45 31.102285 484.45 30.55Z" fill-rule="nonzero"/><path fill="#666666" d="M511.3719 25.89375Q511.3719 27.034374 510.98126 27.89375Q510.60626 28.753124 509.8875 29.20625Q509.1844 29.659374 508.23126 29.659374Q507.3094 29.659374 506.59064 29.20625Q505.8875 28.753124 505.48126 27.909374Q505.09064 27.065624 505.09064 25.95625L505.09064 25.39375Q505.09064 24.26875 505.48126 23.409374Q505.8719 22.534374 506.59064 22.08125Q507.3094 21.628124 508.23126 21.628124Q509.16876 21.628124 509.8875 22.08125Q510.60626 22.534374 510.98126 23.39375Q511.3719 24.253124 511.3719 25.39375L511.3719 25.89375ZM510.34064 25.39375Q510.34064 24.003124 509.77814 23.253124Q509.23126 22.503124 508.23126 22.503124Q507.2469 22.503124 506.6844 23.253124Q506.1219 24.003124 506.10626 25.315624L506.10626 25.89375Q506.10626 27.2375 506.66876 28.01875Q507.2469 28.784374 508.23126 28.784374Q509.23126 28.784374 509.77814 28.065624Q510.325 27.33125 510.34064 25.971874L510.34064 25.39375ZM516.79376 29.55Q516.7 29.378124 516.65314 28.940624Q515.95 29.659374 514.9969 29.659374Q514.1375 29.659374 513.575 29.175Q513.02814 28.690624 513.02814 27.940624Q513.02814 27.034374 513.71564 26.534374Q514.41876 26.01875 515.66876 26.01875L516.6375 26.01875L516.6375 25.565624Q516.6375 25.05 516.325 24.7375Q516.0125 24.425 515.40314 24.425Q514.8719 24.425 514.5125 24.70625Q514.15314 24.971874 514.15314 25.346874L513.15314 25.346874Q513.15314 24.909374 513.46564 24.503124Q513.77814 24.096874 514.29376 23.8625Q514.825 23.628124 515.46564 23.628124Q516.46564 23.628124 517.02814 24.128124Q517.60626 24.628124 517.6219 25.51875L517.6219 28.190624Q517.6219 28.9875 517.825 29.45625L517.825 29.55L516.79376 29.55ZM515.1375 28.8Q515.60626 28.8 516.02814 28.565624Q516.45 28.315624 516.6375 27.925L516.6375 26.7375L515.85626 26.7375Q514.02814 26.7375 514.02814 27.8Q514.02814 28.26875 514.34064 28.534374Q514.65314 28.8 515.1375 28.8ZM520.54376 22.33125L520.54376 23.7375L521.6375 23.7375L521.6375 24.503124L520.54376 24.503124L520.54376 28.1125Q520.54376 28.45625 520.6844 28.64375Q520.84064 28.815624 521.1844 28.815624Q521.35626 28.815624 521.66876 28.7375L521.66876 29.55Q521.2625 29.659374 520.90314 29.659374Q520.23126 29.659374 519.8875 29.253124Q519.5594 28.846874 519.5594 28.1125L519.5594 24.503124L518.4969 24.503124L518.4969 23.7375L519.5594 23.7375L519.5594 22.33125L520.54376 22.33125ZM526.04376 25.3625L528.23126 25.3625L528.23126 26.3L526.04376 26.3L526.04376 28.76875L525.04376 28.76875L525.04376 26.3L522.8719 26.3L522.8719 25.3625L525.04376 25.3625L525.04376 23.065624L526.04376 23.065624L526.04376 25.3625ZM532.04376 25.3625L534.23126 25.3625L534.23126 26.3L532.04376 26.3L532.04376 28.76875L531.04376 28.76875L531.04376 26.3L528.8719 26.3L528.8719 25.3625L531.04376 25.3625L531.04376 23.065624L532.04376 23.065624L532.04376 25.3625Z" fill-rule="nonzero"/><path fill="#6aa84f" d="M484.45 44.55C484.45 43.997715 484.8977 43.55 485.45 43.55L495.45 43.55C496.0023 43.55 496.45 43.997715 496.45 44.55L496.45 54.55C496.45 55.102283 496.0023 55.55 495.45 55.55L485.45 55.55C484.8977 55.55 484.45 55.102283 484.45 54.55Z" fill-rule="nonzero"/><path fill="#666666" d="M511.3719 49.89375Q511.3719 51.034374 510.98126 51.89375Q510.60626 52.753124 509.8875 53.20625Q509.1844 53.659374 508.23126 53.659374Q507.3094 53.659374 506.59064 53.20625Q505.8875 52.753124 505.48126 51.909374Q505.09064 51.065624 505.09064 49.95625L505.09064 49.39375Q505.09064 48.26875 505.48126 47.409374Q505.8719 46.534374 506.59064 46.08125Q507.3094 45.628124 508.23126 45.628124Q509.16876 45.628124 509.8875 46.08125Q510.60626 46.534374 510.98126 47.39375Q511.3719 48.253124 511.3719 49.39375L511.3719 49.89375ZM510.34064 49.39375Q510.34064 48.003124 509.77814 47.253124Q509.23126 46.503124 508.23126 46.503124Q507.2469 46.503124 506.6844 47.253124Q506.1219 48.003124 506.10626 49.315624L506.10626 49.89375Q506.10626 51.2375 506.66876 52.01875Q507.2469 52.784374 508.23126 52.784374Q509.23126 52.784374 509.77814 52.065624Q510.325 51.33125 510.34064 49.971874L510.34064 49.39375ZM516.79376 53.55Q516.7 53.378124 516.65314 52.940624Q515.95 53.659374 514.9969 53.659374Q514.1375 53.659374 513.575 53.175Q513.02814 52.690624 513.02814 51.940624Q513.02814 51.034374 513.71564 50.534374Q514.41876 50.01875 515.66876 50.01875L516.6375 50.01875L516.6375 49.565624Q516.6375 49.05 516.325 48.7375Q516.0125 48.425 515.40314 48.425Q514.8719 48.425 514.5125 48.70625Q514.15314 48.971874 514.15314 49.346874L513.15314 49.346874Q513.15314 48.909374 513.46564 48.503124Q513.77814 48.096874 514.29376 47.8625Q514.825 47.628124 515.46564 47.628124Q516.46564 47.628124 517.02814 48.128124Q517.60626 48.628124 517.6219 49.51875L517.6219 52.190624Q517.6219 52.9875 517.825 53.45625L517.825 53.55L516.79376 53.55ZM515.1375 52.8Q515.60626 52.8 516.02814 52.565624Q516.45 52.315624 516.6375 51.925L516.6375 50.7375L515.85626 50.7375Q514.02814 50.7375 514.02814 51.8Q514.02814 52.26875 514.34064 52.534374Q514.65314 52.8 515.1375 52.8ZM520.54376 46.33125L520.54376 47.7375L521.6375 47.7375L521.6375 48.503124L520.54376 48.503124L520.54376 52.1125Q520.54376 52.45625 520.6844 52.64375Q520.84064 52.815624 521.1844 52.815624Q521.35626 52.815624 521.66876 52.7375L521.66876 53.55Q521.2625 53.659374 520.90314 53.659374Q520.23126 53.659374 519.8875 53.253124Q519.5594 52.846874 519.5594 52.1125L519.5594 48.503124L518.4969 48.503124L518.4969 47.7375L519.5594 47.7375L519.5594 46.33125L520.54376 46.33125ZM526.04376 49.3625L528.23126 49.3625L528.23126 50.3L526.04376 50.3L526.04376 52.76875L525.04376 52.76875L525.04376 50.3L522.8719 50.3L522.8719 49.3625L525.04376 49.3625L525.04376 47.065624L526.04376 47.065624L526.04376 49.3625ZM532.04376 49.3625L534.23126 49.3625L534.23126 50.3L532.04376 50.3L532.04376 52.76875L531.04376 52.76875L531.04376 50.3L528.8719 50.3L528.8719 49.3625L531.04376 49.3625L531.04376 47.065624L532.04376 47.065624L532.04376 49.3625ZM539.6844 45.721874L542.2469 52.1125L544.8094 45.721874L546.1375 45.721874L546.1375 53.55L545.10626 53.55L545.10626 50.503124L545.2 47.221874L542.6375 53.55L541.85626 53.55L539.29376 47.2375L539.3875 50.503124L539.3875 53.55L538.35626 53.55L538.35626 45.721874L539.6844 45.721874ZM547.9344 50.596874Q547.9344 49.7375 548.2625 49.065624Q548.60626 48.378124 549.2 48.003124Q549.8094 47.628124 550.575 47.628124Q551.7625 47.628124 552.4969 48.45625Q553.23126 49.26875 553.23126 50.64375L553.23126 50.70625Q553.23126 51.55 552.90314 52.2375Q552.575 52.909374 551.96564 53.284374Q551.3719 53.659374 550.59064 53.659374Q549.40314 53.659374 548.66876 52.846874Q547.9344 52.01875 547.9344 50.659374L547.9344 50.596874ZM548.9344 50.70625Q548.9344 51.675 549.3875 52.26875Q549.84064 52.846874 550.59064 52.846874Q551.34064 52.846874 551.77814 52.253124Q552.23126 51.659374 552.23126 50.596874Q552.23126 49.628124 551.77814 49.034374Q551.325 48.440624 550.575 48.440624Q549.84064 48.440624 549.3875 49.034374Q548.9344 49.6125 548.9344 50.70625ZM555.1375 47.7375L555.16876 48.471874Q555.84064 47.628124 556.91876 47.628124Q558.7625 47.628124 558.77814 49.70625L558.77814 53.55L557.77814 53.55L557.77814 49.70625Q557.77814 49.08125 557.4969 48.784374Q557.21564 48.471874 556.60626 48.471874Q556.1375 48.471874 555.7625 48.7375Q555.40314 48.9875 555.2 49.409374L555.2 53.55L554.2 53.55L554.2 47.7375L555.1375 47.7375ZM559.9344 50.596874Q559.9344 49.7375 560.2625 49.065624Q560.60626 48.378124 561.2 48.003124Q561.8094 47.628124 562.575 47.628124Q563.7625 47.628124 564.4969 48.45625Q565.23126 49.26875 565.23126 50.64375L565.23126 50.70625Q565.23126 51.55 564.90314 52.2375Q564.575 52.909374 563.96564 53.284374Q563.3719 53.659374 562.59064 53.659374Q561.40314 53.659374 560.66876 52.846874Q559.9344 52.01875 559.9344 50.659374L559.9344 50.596874ZM560.9344 50.70625Q560.9344 51.675 561.3875 52.26875Q561.84064 52.846874 562.59064 52.846874Q563.34064 52.846874 563.77814 52.253124Q564.23126 51.659374 564.23126 50.596874Q564.23126 49.628124 563.77814 49.034374Q563.325 48.440624 562.575 48.440624Q561.84064 48.440624 561.3875 49.034374Q560.9344 49.6125 560.9344 50.70625ZM567.27814 53.55L566.29376 53.55L566.29376 45.3L567.27814 45.3L567.27814 53.55ZM570.27814 53.55L569.29376 53.55L569.29376 47.7375L570.27814 47.7375L570.27814 53.55ZM569.2 46.190624Q569.2 45.95625 569.34064 45.8Q569.4969 45.628124 569.79376 45.628124Q570.09064 45.628124 570.23126 45.8Q570.3875 45.95625 570.3875 46.20625Q570.3875 46.440624 570.23126 46.596874Q570.09064 46.753124 569.79376 46.753124Q569.4969 46.753124 569.34064 46.596874Q569.2 46.440624 569.2 46.190624ZM573.54376 46.33125L573.54376 47.7375L574.6375 47.7375L574.6375 48.503124L573.54376 48.503124L573.54376 52.1125Q573.54376 52.45625 573.6844 52.64375Q573.84064 52.815624 574.1844 52.815624Q574.35626 52.815624 574.66876 52.7375L574.66876 53.55Q574.2625 53.659374 573.90314 53.659374Q573.23126 53.659374 572.8875 53.253124Q572.5594 52.846874 572.5594 52.1125L572.5594 48.503124L571.4969 48.503124L571.4969 47.7375L572.5594 47.7375L572.5594 46.33125L573.54376 46.33125ZM577.2 48.440624Q577.85626 47.628124 578.91876 47.628124Q580.7625 47.628124 580.77814 49.70625L580.77814 53.55L579.77814 53.55L579.77814 49.70625Q579.77814 49.08125 579.4969 48.784374Q579.21564 48.471874 578.60626 48.471874Q578.1375 48.471874 577.7625 48.7375Q577.40314 48.9875 577.2 49.409374L577.2 53.55L576.2 53.55L576.2 45.3L577.2 45.3L577.2 48.440624Z" fill-rule="nonzero"/></svg>