<svg version="1.1" viewBox="0.0 0.0 600.0 371.0" fill="none" stroke="none" stroke-linecap="square" stroke-miterlimit="10" width="600" height="371" xmlns:xlink="http://www.w3.org/1999/xlink" xmlns="http://www.w3.org/2000/svg"><path fill="#ffffff" d="M0 0L600.0 0L600.0 371.0L0 371.0L0 0Z" fill-rule="nonzero"/><path stroke="#333333" stroke-width="1.0" stroke-linecap="butt" d="M81.5 298.5L464.5 298.5" fill-rule="nonzero"/><path stroke="#cccccc" stroke-width="1.0" stroke-linecap="butt" d="M81.5 218.5L464.5 218.5" fill-rule="nonzero"/><path stroke="#cccccc" stroke-width="1.0" stroke-linecap="butt" d="M81.5 139.5L464.5 139.5" fill-rule="nonzero"/><path stroke="#cccccc" stroke-width="1.0" stroke-linecap="butt" d="M81.5 59.5L464.5 59.5" fill-rule="nonzero"/><path stroke="#e6e6e6" stroke-width="1.0" stroke-linecap="butt" d="M81.5 271.5L464.5 271.5" fill-rule="nonzero"/><path stroke="#e6e6e6" stroke-width="1.0" stroke-linecap="butt" d="M81.5 245.5L464.5 245.5" fill-rule="nonzero"/><path stroke="#e6e6e6" stroke-width="1.0" stroke-linecap="butt" d="M81.5 192.5L464.5 192.5" fill-rule="nonzero"/><path stroke="#e6e6e6" stroke-width="1.0" stroke-linecap="butt" d="M81.5 165.5L464.5 165.5" fill-rule="nonzero"/><path stroke="#e6e6e6" stroke-width="1.0" stroke-linecap="butt" d="M81.5 112.5L464.5 112.5" fill-rule="nonzero"/><path stroke="#e6e6e6" stroke-width="1.0" stroke-linecap="butt" d="M81.5 85.5L464.5 85.5" fill-rule="nonzero"/><clipPath id="id_0"><path d="M81.55 59.416668L464.4811 59.416668L464.4811 298.45L81.55 298.45L81.55 59.416668Z" clip-rule="nonzero"/></clipPath><path stroke="#000000" stroke-width="0.0" stroke-linecap="butt" stroke-opacity="0.0" clip-path="url(#id_0)" d="M121.0 298.0L102.0 298.0L102.0 172.0C102.0 170.89543 102.89543 170.0 104.0 170.0L119.0 170.0C120.10457 170.0 121.0 170.89543 121.0 172.0Z" fill-rule="nonzero"/><path fill="#4a86e8" clip-path="url(#id_0)" d="M121.0 298.0L102.0 298.0L102.0 172.0C102.0 170.89543 102.89543 170.0 104.0 170.0L119.0 170.0C120.10457 170.0 121.0 170.89543 121.0 172.0Z" fill-rule="nonzero"/><path stroke="#000000" stroke-width="0.0" stroke-linecap="butt" stroke-opacity="0.0" clip-path="url(#id_0)" d="M182.0 298.0L163.0 298.0L163.0 162.0C163.0 160.89543 163.89543 160.0 165.0 160.0L180.0 160.0C181.10457 160.0 182.0 160.89543 182.0 162.0Z" fill-rule="nonzero"/><path fill="#4a86e8" clip-path="url(#id_0)" d="M182.0 298.0L163.0 298.0L163.0 162.0C163.0 160.89543 163.89543 160.0 165.0 160.0L180.0 160.0C181.10457 160.0 182.0 160.89543 182.0 162.0Z" fill-rule="nonzero"/><path stroke="#000000" stroke-width="0.0" stroke-linecap="butt" stroke-opacity="0.0" clip-path="url(#id_0)" d="M242.0 298.0L223.0 298.0L223.0 163.0C223.0 161.89543 223.89543 161.0 225.0 161.0L240.0 161.0C241.10457 161.0 242.0 161.89543 242.0 163.0Z" fill-rule="nonzero"/><path fill="#4a86e8" clip-path="url(#id_0)" d="M242.0 298.0L223.0 298.0L223.0 163.0C223.0 161.89543 223.89543 161.0 225.0 161.0L240.0 161.0C241.10457 161.0 242.0 161.89543 242.0 163.0Z" fill-rule="nonzero"/><path stroke="#000000" stroke-width="0.0" stroke-linecap="butt" stroke-opacity="0.0" clip-path="url(#id_0)" d="M302.0 298.0L283.0 298.0L283.0 164.0C283.0 162.89543 283.89542 162.0 285.0 162.0L300.0 162.0C301.10458 162.0 302.0 162.89543 302.0 164.0Z" fill-rule="nonzero"/><path fill="#4a86e8" clip-path="url(#id_0)" d="M302.0 298.0L283.0 298.0L283.0 164.0C283.0 162.89543 283.89542 162.0 285.0 162.0L300.0 162.0C301.10458 162.0 302.0 162.89543 302.0 164.0Z" fill-rule="nonzero"/><path stroke="#000000" stroke-width="0.0" stroke-linecap="butt" stroke-opacity="0.0" clip-path="url(#id_0)" d="M362.0 298.0L343.0 298.0L343.0 171.0C343.0 169.89543 343.89542 169.0 345.0 169.0L360.0 169.0C361.10458 169.0 362.0 169.89543 362.0 171.0Z" fill-rule="nonzero"/><path fill="#4a86e8" clip-path="url(#id_0)" d="M362.0 298.0L343.0 298.0L343.0 171.0C343.0 169.89543 343.89542 169.0 345.0 169.0L360.0 169.0C361.10458 169.0 362.0 169.89543 362.0 171.0Z" fill-rule="nonzero"/><path stroke="#000000" stroke-width="0.0" stroke-linecap="butt" stroke-opacity="0.0" clip-path="url(#id_0)" d="M423.0 298.0L404.0 298.0L404.0 181.0C404.0 179.89543 404.89542 179.0 406.0 179.0L421.0 179.0C422.10458 179.0 423.0 179.89543 423.0 181.0Z" fill-rule="nonzero"/><path fill="#4a86e8" clip-path="url(#id_0)" d="M423.0 298.0L404.0 298.0L404.0 181.0C404.0 179.89543 404.89542 179.0 406.0 179.0L421.0 179.0C422.10458 179.0 423.0 179.89543 423.0 181.0Z" fill-rule="nonzero"/><path stroke="#000000" stroke-width="0.0" stroke-linecap="butt" stroke-opacity="0.0" clip-path="url(#id_0)" d="M141.0 298.0L122.0 298.0L122.0 107.0C122.0 105.89543 122.89543 105.0 124.0 105.0L139.0 105.0C140.10457 105.0 141.0 105.89543 141.0 107.0Z" fill-rule="nonzero"/><path fill="#6aa84f" clip-path="url(#id_0)" d="M141.0 298.0L122.0 298.0L122.0 107.0C122.0 105.89543 122.89543 105.0 124.0 105.0L139.0 105.0C140.10457 105.0 141.0 105.89543 141.0 107.0Z" fill-rule="nonzero"/><path stroke="#000000" stroke-width="0.0" stroke-linecap="butt" stroke-opacity="0.0" clip-path="url(#id_0)" d="M202.0 298.0L183.0 298.0L183.0 71.0C183.0 69.89543 183.89543 69.0 185.0 69.0L200.0 69.0C201.10457 69.0 202.0 69.89543 202.0 71.0Z" fill-rule="nonzero"/><path fill="#6aa84f" clip-path="url(#id_0)" d="M202.0 298.0L183.0 298.0L183.0 71.0C183.0 69.89543 183.89543 69.0 185.0 69.0L200.0 69.0C201.10457 69.0 202.0 69.89543 202.0 71.0Z" fill-rule="nonzero"/><path stroke="#000000" stroke-width="0.0" stroke-linecap="butt" stroke-opacity="0.0" clip-path="url(#id_0)" d="M262.0 298.0L243.0 298.0L243.0 75.0C243.0 73.89543 243.89543 73.0 245.0 73.0L260.0 73.0C261.10458 73.0 262.0 73.89543 262.0 75.0Z" fill-rule="nonzero"/><path fill="#6aa84f" clip-path="url(#id_0)" d="M262.0 298.0L243.0 298.0L243.0 75.0C243.0 73.89543 243.89543 73.0 245.0 73.0L260.0 73.0C261.10458 73.0 262.0 73.89543 262.0 75.0Z" fill-rule="nonzero"/><path stroke="#000000" stroke-width="0.0" stroke-linecap="butt" stroke-opacity="0.0" clip-path="url(#id_0)" d="M322.0 298.0L303.0 298.0L303.0 80.0C303.0 78.89543 303.89542 78.0 305.0 78.0L320.0 78.0C321.10458 78.0 322.0 78.89543 322.0 80.0Z" fill-rule="nonzero"/><path fill="#6aa84f" clip-path="url(#id_0)" d="M322.0 298.0L303.0 298.0L303.0 80.0C303.0 78.89543 303.89542 78.0 305.0 78.0L320.0 78.0C321.10458 78.0 322.0 78.89543 322.0 80.0Z" fill-rule="nonzero"/><path stroke="#000000" stroke-width="0.0" stroke-linecap="butt" stroke-opacity="0.0" clip-path="url(#id_0)" d="M382.0 298.0L363.0 298.0L363.0 92.0C363.0 90.89543 363.89542 90.0 365.0 90.0L380.0 90.0C381.10458 90.0 382.0 90.89543 382.0 92.0Z" fill-rule="nonzero"/><path fill="#6aa84f" clip-path="url(#id_0)" d="M382.0 298.0L363.0 298.0L363.0 92.0C363.0 90.89543 363.89542 90.0 365.0 90.0L380.0 90.0C381.10458 90.0 382.0 90.89543 382.0 92.0Z" fill-rule="nonzero"/><path stroke="#000000" stroke-width="0.0" stroke-linecap="butt" stroke-opacity="0.0" clip-path="url(#id_0)" d="M443.0 298.0L424.0 298.0L424.0 105.0C424.0 103.89543 424.89542 103.0 426.0 103.0L441.0 103.0C442.10458 103.0 443.0 103.89543 443.0 105.0Z" fill-rule="nonzero"/><path fill="#6aa84f" clip-path="url(#id_0)" d="M443.0 298.0L424.0 298.0L424.0 105.0C424.0 103.89543 424.89542 103.0 426.0 103.0L441.0 103.0C442.10458 103.0 443.0 103.89543 443.0 105.0Z" fill-rule="nonzero"/><path fill="#424242" d="M231.28117 346.7469Q231.12492 348.09064 230.28117 348.84064Q229.43742 349.575 228.0468 349.575Q226.53117 349.575 225.62492 348.4969Q224.71867 347.40314 224.71867 345.575L224.71867 344.7625Q224.71867 343.575 225.14055 342.66876Q225.56242 341.7625 226.34367 341.27814Q227.12492 340.79376 228.14055 340.79376Q229.49992 340.79376 230.31242 341.5594Q231.14055 342.325 231.28117 343.65314L230.15617 343.65314Q229.99992 342.6375 229.51555 342.1844Q229.03117 341.73126 228.14055 341.73126Q227.06242 341.73126 226.45305 342.52814Q225.84367 343.325 225.84367 344.79376L225.84367 345.6219Q225.84367 347.0125 226.4218 347.84064Q226.99992 348.65314 228.0468 348.65314Q228.9843 348.65314 229.4843 348.23126Q229.9843 347.79376 230.15617 346.7469L231.28117 346.7469ZM232.5468 346.21564Q232.5468 345.29376 232.90617 344.54376Q233.28117 343.79376 233.93742 343.40314Q234.59367 342.9969 235.4218 342.9969Q236.71867 342.9969 237.51555 343.8875Q238.32805 344.77814 238.32805 346.27814L238.32805 346.35626Q238.32805 347.27814 237.96867 348.0125Q237.6093 348.7469 236.95305 349.16876Q236.2968 349.575 235.43742 349.575Q234.15617 349.575 233.34367 348.6844Q232.5468 347.77814 232.5468 346.29376L232.5468 346.21564ZM233.64055 346.35626Q233.64055 347.40314 234.12492 348.04376Q234.62492 348.6844 235.43742 348.6844Q236.26555 348.6844 236.74992 348.04376Q237.2343 347.3875 237.2343 346.21564Q237.2343 345.1844 236.7343 344.54376Q236.24992 343.8875 235.4218 343.8875Q234.62492 343.8875 234.12492 344.52814Q233.64055 345.15314 233.64055 346.35626ZM240.8593 343.10626L240.89055 343.90314Q241.62492 342.9969 242.7968 342.9969Q244.81242 342.9969 244.82805 345.2625L244.82805 349.45L243.7343 349.45L243.7343 345.2469Q243.7343 344.575 243.4218 344.2469Q243.12492 343.91876 242.46867 343.91876Q241.93742 343.91876 241.53117 344.2Q241.14055 344.48126 240.9218 344.9344L240.9218 349.45L239.84367 349.45L239.84367 343.10626L240.8593 343.10626ZM249.37492 348.6844Q249.95305 348.6844 250.39055 348.34064Q250.82805 347.98126 250.87492 347.45L251.90617 347.45Q251.87492 347.9969 251.51555 348.4969Q251.1718 348.98126 250.59367 349.27814Q250.03117 349.575 249.37492 349.575Q248.07805 349.575 247.31242 348.71564Q246.56242 347.84064 246.56242 346.34064L246.56242 346.15314Q246.56242 345.23126 246.89055 344.5125Q247.2343 343.79376 247.8593 343.40314Q248.49992 342.9969 249.37492 342.9969Q250.43742 342.9969 251.14055 343.6375Q251.8593 344.2625 251.90617 345.29376L250.87492 345.29376Q250.82805 344.66876 250.40617 344.27814Q249.9843 343.8875 249.37492 343.8875Q248.5468 343.8875 248.09367 344.48126Q247.64055 345.075 247.64055 346.2L247.64055 346.40314Q247.64055 347.4969 248.09367 348.09064Q248.5468 348.6844 249.37492 348.6844ZM256.74994 348.825Q256.12494 349.575 254.89055 349.575Q253.87492 349.575 253.34367 348.98126Q252.81242 348.3875 252.81242 347.23126L252.81242 343.10626L253.89055 343.10626L253.89055 347.2Q253.89055 348.65314 255.06242 348.65314Q256.31244 348.65314 256.7187 347.71564L256.7187 343.10626L257.81244 343.10626L257.81244 349.45L256.7812 349.45L256.74994 348.825ZM262.9062 344.075Q262.6562 344.04376 262.37494 344.04376Q261.2968 344.04376 260.9218 344.95L260.9218 349.45L259.8437 349.45L259.8437 343.10626L260.89056 343.10626L260.9062 343.84064Q261.43744 342.9969 262.4218 342.9969Q262.7343 342.9969 262.9062 343.075L262.9062 344.075ZM266.9062 344.075Q266.6562 344.04376 266.37494 344.04376Q265.2968 344.04376 264.9218 344.95L264.9218 349.45L263.8437 349.45L263.8437 343.10626L264.89056 343.10626L264.9062 343.84064Q265.43744 342.9969 266.4218 342.9969Q266.7343 342.9969 266.9062 343.075L266.9062 344.075ZM270.4687 349.575Q269.1718 349.575 268.3593 348.73126Q267.56244 347.8719 267.56244 346.45L267.56244 346.2625Q267.56244 345.3094 267.9218 344.575Q268.2812 343.825 268.9218 343.41876Q269.57806 342.9969 270.32806 342.9969Q271.56244 342.9969 272.24994 343.8094Q272.93744 344.6219 272.93744 346.1375L272.93744 346.59064L268.64056 346.59064Q268.6718 347.52814 269.18744 348.10626Q269.7187 348.6844 270.5312 348.6844Q271.0937 348.6844 271.4843 348.45Q271.89056 348.21564 272.20306 347.825L272.8593 348.34064Q272.06244 349.575 270.4687 349.575ZM270.32806 343.8875Q269.6718 343.8875 269.2187 344.3719Q268.7812 344.84064 268.68744 345.7L271.8593 345.7L271.8593 345.6219Q271.81244 344.79376 271.4062 344.34064Q271.01556 343.8875 270.32806 343.8875ZM274.8593 343.10626L274.89056 343.90314Q275.62494 342.9969 276.7968 342.9969Q278.81244 342.9969 278.82806 345.2625L278.82806 349.45L277.7343 349.45L277.7343 345.2469Q277.7343 344.575 277.4218 344.2469Q277.12494 343.91876 276.4687 343.91876Q275.93744 343.91876 275.5312 344.2Q275.14056 344.48126 274.9218 344.9344L274.9218 349.45L273.8437 349.45L273.8437 343.10626L274.8593 343.10626ZM283.37494 348.6844Q283.95306 348.6844 284.39056 348.34064Q284.82806 347.98126 284.87494 347.45L285.9062 347.45Q285.87494 347.9969 285.51556 348.4969Q285.1718 348.98126 284.5937 349.27814Q284.0312 349.575 283.37494 349.575Q282.07806 349.575 281.31244 348.71564Q280.56244 347.84064 280.56244 346.34064L280.56244 346.15314Q280.56244 345.23126 280.89056 344.5125Q281.2343 343.79376 281.8593 343.40314Q282.49994 342.9969 283.37494 342.9969Q284.43744 342.9969 285.14056 343.6375Q285.8593 344.2625 285.9062 345.29376L284.87494 345.29376Q284.82806 344.66876 284.4062 344.27814Q283.9843 343.8875 283.37494 343.8875Q282.5468 343.8875 282.0937 344.48126Q281.64056 345.075 281.64056 346.2L281.64056 346.40314Q281.64056 347.4969 282.0937 348.09064Q282.5468 348.6844 283.37494 348.6844ZM288.9062 347.85626L290.39056 343.10626L291.5468 343.10626L288.99994 350.4344Q288.4062 352.0125 287.12494 352.0125L286.9062 351.9969L286.51556 351.91876L286.51556 351.04376L286.7968 351.0594Q287.3593 351.0594 287.6562 350.84064Q287.9687 350.6219 288.1718 350.02814L288.4062 349.3719L286.14056 343.10626L287.32806 343.10626L288.9062 347.85626ZM297.14056 348.52814L301.18744 348.52814L301.18744 349.45L295.99994 349.45L295.99994 340.91876L297.14056 340.91876L297.14056 348.52814ZM304.4687 349.575Q303.1718 349.575 302.3593 348.73126Q301.56244 347.8719 301.56244 346.45L301.56244 346.2625Q301.56244 345.3094 301.9218 344.575Q302.2812 343.825 302.9218 343.41876Q303.57806 342.9969 304.32806 342.9969Q305.56244 342.9969 306.24994 343.8094Q306.93744 344.6219 306.93744 346.1375L306.93744 346.59064L302.64056 346.59064Q302.6718 347.52814 303.18744 348.10626Q303.7187 348.6844 304.5312 348.6844Q305.0937 348.6844 305.4843 348.45Q305.89056 348.21564 306.20306 347.825L306.8593 348.34064Q306.06244 349.575 304.4687 349.575ZM304.32806 343.8875Q303.6718 343.8875 303.2187 344.3719Q302.7812 344.84064 302.68744 345.7L305.8593 345.7L305.8593 345.6219Q305.81244 344.79376 305.4062 344.34064Q305.01556 343.8875 304.32806 343.8875ZM309.9218 347.98126L311.49994 343.10626L312.6093 343.10626L310.32806 349.45L309.49994 349.45L307.20306 343.10626L308.31244 343.10626L309.9218 347.98126ZM316.4687 349.575Q315.1718 349.575 314.3593 348.73126Q313.56244 347.8719 313.56244 346.45L313.56244 346.2625Q313.56244 345.3094 313.9218 344.575Q314.2812 343.825 314.9218 343.41876Q315.57806 342.9969 316.32806 342.9969Q317.56244 342.9969 318.24994 343.8094Q318.93744 344.6219 318.93744 346.1375L318.93744 346.59064L314.64056 346.59064Q314.6718 347.52814 315.18744 348.10626Q315.7187 348.6844 316.5312 348.6844Q317.0937 348.6844 317.4843 348.45Q317.89056 348.21564 318.20306 347.825L318.8593 348.34064Q318.06244 349.575 316.4687 349.575ZM316.32806 343.8875Q315.6718 343.8875 315.2187 344.3719Q314.7812 344.84064 314.68744 345.7L317.8593 345.7L317.8593 345.6219Q317.81244 344.79376 317.4062 344.34064Q317.01556 343.8875 316.32806 343.8875ZM321.01556 349.45L319.93744 349.45L319.93744 340.45L321.01556 340.45L321.01556 349.45Z" fill-rule="nonzero"/><path fill="#b7b7b7" d="M25.675013 228.33958L25.675013 229.98021L28.550013 230.48021L28.550013 231.40208L21.440638 230.16771L21.440638 228.02708Q21.456263 226.90208 22.018763 226.32396Q22.565638 225.73021 23.534388 225.82396Q24.206263 225.88646 24.721888 226.32396Q25.221888 226.74583 25.487513 227.46458L28.487513 226.35521L28.550013 226.37083L28.550013 227.33958L25.675013 228.33958ZM24.909388 229.83958L24.909388 228.49583Q24.909388 227.79271 24.534388 227.30833Q24.159388 226.82396 23.534388 226.74583Q22.925013 226.66771 22.581263 226.99583Q22.237513 227.30833 22.221888 227.96458L22.206263 229.37083L24.909388 229.83958ZM28.643763 223.24583Q28.628138 224.23021 27.925013 224.79271Q27.206263 225.33958 26.112513 225.26146L25.893763 225.23021Q25.112513 225.15208 24.471888 224.77708Q23.815638 224.38646 23.487513 223.83958Q23.159388 223.27708 23.175013 222.63646Q23.190638 221.82396 23.721888 221.37083Q24.237513 220.90208 25.128138 220.85521Q25.440638 220.83958 25.768763 220.87083L26.159388 220.93333L26.159388 224.38646Q26.878138 224.46458 27.393763 224.15208Q27.893763 223.82396 27.909388 223.16771Q27.925013 222.38646 27.206263 221.73021L27.643763 221.21458Q28.112513 221.55833 28.393763 222.08958Q28.659388 222.60521 28.643763 223.24583ZM23.909388 222.68333Q23.893763 223.23021 24.284388 223.63646Q24.659388 224.04271 25.425013 224.29271L25.425013 221.71458L25.346888 221.69896Q24.737513 221.62083 24.331263 221.90208Q23.925013 222.16771 23.909388 222.68333ZM23.159388 217.82396Q23.190638 216.93333 23.800013 216.46458L23.268763 216.30833L23.268763 215.48021L30.581263 216.76146L30.581263 217.63646L28.065638 217.15208Q28.675013 217.79271 28.643763 218.63646Q28.643763 219.37083 28.096888 219.82396Q27.534388 220.26146 26.596888 220.29271Q25.987513 220.32396 25.315638 220.15208Q24.643763 219.98021 24.143763 219.65208Q23.643763 219.30833 23.393763 218.83958Q23.143763 218.37083 23.159388 217.82396ZM26.003138 219.38646L26.409388 219.41771Q27.112513 219.43333 27.518763 219.16771Q27.909388 218.88646 27.909388 218.37083Q27.940638 217.63646 27.206263 217.05833L24.596888 216.58958Q23.925013 216.91771 23.909388 217.65208Q23.893763 218.32396 24.425013 218.77708Q24.940638 219.23021 26.003138 219.38646ZM28.034388 211.18333Q28.675013 211.79271 28.643763 212.76146Q28.628138 213.51146 28.112513 213.88646Q27.581263 214.24583 26.675013 214.15208L23.268763 213.57396L23.268763 212.69896L26.690638 213.26146Q26.909388 213.29271 27.112513 213.27708Q27.471888 213.24583 27.675013 213.07396Q27.862513 212.88646 27.878138 212.54271Q27.909388 211.60521 27.112513 211.08958L23.268763 210.41771L23.268763 209.54271L28.550013 210.44896L28.550013 211.29271L28.034388 211.18333ZM28.643763 207.24583Q28.628138 208.23021 27.925013 208.79271Q27.206263 209.33958 26.112513 209.26146L25.893763 209.23021Q25.112513 209.15208 24.471888 208.77708Q23.815638 208.38646 23.487513 207.83958Q23.159388 207.27708 23.175013 206.63646Q23.190638 205.82396 23.721888 205.37083Q24.237513 204.90208 25.128138 204.85521Q25.440638 204.83958 25.768763 204.87083L26.159388 204.93333L26.159388 208.38646Q26.878138 208.46458 27.393763 208.15208Q27.893763 207.82396 27.909388 207.16771Q27.925013 206.38646 27.206263 205.73021L27.643763 205.21458Q28.112513 205.55833 28.393763 206.08958Q28.659388 206.60521 28.643763 207.24583ZM23.909388 206.68333Q23.893763 207.23021 24.284388 207.63646Q24.659388 208.04271 25.425013 208.29271L25.425013 205.71458L25.346888 205.69896Q24.737513 205.62083 24.331263 205.90208Q23.925013 206.16771 23.909388 206.68333ZM27.112513 201.26146Q26.565638 201.18333 26.346888 201.85521L26.081263 202.77708Q25.675013 203.93333 24.753138 203.90208Q24.050013 203.87083 23.612513 203.27708Q23.159388 202.66771 23.175013 201.83958Q23.175013 201.04271 23.643763 200.54271Q24.096888 200.04271 24.831263 200.05833L24.815638 200.94896Q24.425013 200.93333 24.175013 201.19896Q23.925013 201.44896 23.909388 201.88646Q23.909388 202.33958 24.143763 202.66771Q24.362513 202.98021 24.721888 203.02708Q25.175013 203.08958 25.378138 202.46458L25.503138 202.02708Q25.737513 201.12083 26.112513 200.74583Q26.487513 200.35521 27.050013 200.38646Q27.550013 200.41771 27.909388 200.71458Q28.268763 200.99583 28.471888 201.49583Q28.659388 201.98021 28.643763 202.52708Q28.643763 203.37083 28.159388 203.91771Q27.675013 204.46458 26.925013 204.43333L26.925013 203.55833Q27.362513 203.55833 27.643763 203.27708Q27.909388 202.99583 27.909388 202.49583Q27.909388 202.01146 27.706263 201.66771Q27.487513 201.30833 27.112513 201.26146ZM21.987513 197.19896L23.268763 197.41771L23.268763 196.46458L23.971888 196.58958L23.971888 197.54271L27.253138 198.08958Q27.378138 198.10521 27.487513 198.08958Q27.862513 198.05833 27.862513 197.68333Q27.862513 197.52708 27.815638 197.24583L28.550013 197.32396Q28.643763 197.63646 28.643763 197.96458Q28.628138 198.49583 28.253138 198.76146Q27.878138 199.01146 27.237513 198.96458L23.971888 198.41771L23.971888 199.35521L23.268763 199.23021L23.268763 198.30833L21.987513 198.07396L21.987513 197.19896ZM27.112513 193.26146Q26.565638 193.18333 26.346888 193.85521L26.081263 194.77708Q25.675013 195.93333 24.753138 195.90208Q24.050013 195.87083 23.612513 195.27708Q23.159388 194.66771 23.175013 193.83958Q23.175013 193.04271 23.643763 192.54271Q24.096888 192.04271 24.831263 192.05833L24.815638 192.94896Q24.425013 192.93333 24.175013 193.19896Q23.925013 193.44896 23.909388 193.88646Q23.909388 194.33958 24.143763 194.66771Q24.362513 194.98021 24.721888 195.02708Q25.175013 195.08958 25.378138 194.46458L25.503138 194.02708Q25.737513 193.12083 26.112513 192.74583Q26.487513 192.35521 27.050013 192.38646Q27.550013 192.41771 27.909388 192.71458Q28.268763 192.99583 28.471888 193.49583Q28.659388 193.98021 28.643763 194.52708Q28.643763 195.37083 28.159388 195.91771Q27.675013 196.46458 26.925013 196.43333L26.925013 195.55833Q27.362513 195.55833 27.643763 195.27708Q27.909388 194.99583 27.909388 194.49583Q27.909388 194.01146 27.706263 193.66771Q27.487513 193.30833 27.112513 193.26146ZM25.768763 187.99583L28.550013 188.48021L28.550013 189.40208L21.440638 188.15208L21.440638 185.79271Q21.440638 184.68333 22.034388 184.08958Q22.612513 183.49583 23.581263 183.57396Q24.596888 183.66771 25.190638 184.40208Q25.768763 185.12083 25.768763 186.30833L25.768763 187.99583ZM25.003138 187.85521L25.003138 186.27708Q25.003138 185.52708 24.628138 185.05833Q24.253138 184.57396 23.581263 184.49583Q22.987513 184.41771 22.612513 184.74583Q22.237513 185.07396 22.221888 185.69896L22.206263 187.37083L25.003138 187.85521ZM28.643763 181.24583Q28.628138 182.23021 27.925013 182.79271Q27.206263 183.33958 26.112513 183.26146L25.893763 183.23021Q25.112513 183.15208 24.471888 182.77708Q23.815638 182.38646 23.487513 181.83958Q23.159388 181.27708 23.175013 180.63646Q23.190638 179.82396 23.721888 179.37083Q24.237513 178.90208 25.128138 178.85521Q25.440638 178.83958 25.768763 178.87083L26.159388 178.93333L26.159388 182.38646Q26.878138 182.46458 27.393763 182.15208Q27.893763 181.82396 27.909388 181.16771Q27.925013 180.38646 27.206263 179.73021L27.643763 179.21458Q28.112513 179.55833 28.393763 180.08958Q28.659388 180.60521 28.643763 181.24583ZM23.909388 180.68333Q23.893763 181.23021 24.284388 181.63646Q24.659388 182.04271 25.425013 182.29271L25.425013 179.71458L25.346888 179.69896Q24.737513 179.62083 24.331263 179.90208Q23.925013 180.16771 23.909388 180.68333ZM24.065638 175.24583L24.034388 175.66771Q24.034388 176.51146 24.800013 176.99583L28.550013 177.65208L28.550013 178.52708L23.268763 177.62083L23.268763 176.76146L23.878138 176.88646Q23.143763 176.32396 23.159388 175.57396Q23.159388 175.40208 23.237513 175.15208L24.065638 175.24583ZM26.721888 169.40208Q25.940638 169.29271 25.581263 170.21458L25.268763 171.05833L25.143763 171.33958Q24.503138 172.76146 23.315638 172.66771Q22.721888 172.62083 22.268763 172.27708Q21.815638 171.91771 21.581263 171.32396Q21.331263 170.73021 21.346888 170.07396Q21.362513 169.41771 21.643763 168.91771Q21.909388 168.41771 22.393763 168.15208Q22.878138 167.88646 23.503138 167.91771L23.503138 168.83958Q22.846888 168.79271 22.487513 169.13646Q22.128138 169.48021 22.112513 170.10521Q22.096888 170.77708 22.425013 171.23021Q22.753138 171.68333 23.300013 171.74583Q24.034388 171.83958 24.409388 170.85521L24.675013 170.12083L24.831263 169.76146Q25.456263 168.38646 26.706263 168.48021Q27.315638 168.54271 27.753138 168.90208Q28.190638 169.24583 28.425013 169.85521Q28.659388 170.44896 28.643763 171.13646Q28.643763 171.80833 28.362513 172.37083Q28.081263 172.91771 27.596888 173.21458Q27.096888 173.49583 26.487513 173.46458L26.487513 172.54271Q27.128138 172.58958 27.503138 172.19896Q27.878138 171.80833 27.893763 171.10521Q27.893763 170.38646 27.581263 169.93333Q27.253138 169.48021 26.721888 169.40208ZM28.643763 165.24583Q28.628138 166.23021 27.925013 166.79271Q27.206263 167.33958 26.112513 167.26146L25.893763 167.23021Q25.112513 167.15208 24.471888 166.77708Q23.815638 166.38646 23.487513 165.83958Q23.159388 165.27708 23.175013 164.63646Q23.190638 163.82396 23.721888 163.37083Q24.237513 162.90208 25.128138 162.85521Q25.440638 162.83958 25.768763 162.87083L26.159388 162.93333L26.159388 166.38646Q26.878138 166.46458 27.393763 166.15208Q27.893763 165.82396 27.909388 165.16771Q27.925013 164.38646 27.206263 163.73021L27.643763 163.21458Q28.112513 163.55833 28.393763 164.08958Q28.659388 164.60521 28.643763 165.24583ZM23.909388 164.68333Q23.893763 165.23021 24.284388 165.63646Q24.659388 166.04271 25.425013 166.29271L25.425013 163.71458L25.346888 163.69896Q24.737513 163.62083 24.331263 163.90208Q23.925013 164.16771 23.909388 164.68333ZM27.909388 160.29271Q27.925013 159.82396 27.643763 159.44896Q27.346888 159.05833 26.893763 158.94896L26.878138 158.10521Q27.378138 158.18333 27.800013 158.51146Q28.206263 158.83958 28.440638 159.33958Q28.659388 159.82396 28.643763 160.33958Q28.643763 160.99583 28.315638 161.46458Q27.971888 161.91771 27.378138 162.13646Q26.768763 162.33958 26.018763 162.27708L25.784388 162.24583Q25.018763 162.15208 24.425013 161.80833Q23.815638 161.44896 23.487513 160.88646Q23.143763 160.32396 23.175013 159.63646Q23.190638 158.80833 23.737513 158.30833Q24.268763 157.80833 25.081263 157.80833L25.081263 158.63646Q24.565638 158.65208 24.253138 158.93333Q23.925013 159.19896 23.909388 159.66771Q23.893763 160.37083 24.425013 160.82396Q24.940638 161.27708 25.893763 161.38646L26.018763 161.40208Q26.331263 161.43333 26.659388 161.41771Q27.237513 161.38646 27.565638 161.10521Q27.893763 160.80833 27.909388 160.29271ZM23.175013 154.58958Q23.175013 153.93333 23.534388 153.46458Q23.878138 152.98021 24.503138 152.76146Q25.112513 152.52708 25.846888 152.60521L25.956263 152.62083Q26.721888 152.71458 27.346888 153.07396Q27.971888 153.43333 28.331263 154.02708Q28.675013 154.60521 28.643763 155.29271Q28.643763 155.94896 28.300013 156.43333Q27.940638 156.90208 27.331263 157.12083Q26.721888 157.33958 26.003138 157.27708Q25.175013 157.21458 24.518763 156.83958Q23.862513 156.46458 23.503138 155.88646Q23.143763 155.29271 23.175013 154.58958ZM26.003138 156.38646Q26.315638 156.43333 26.643763 156.38646Q27.221888 156.33958 27.565638 156.05833Q27.893763 155.76146 27.909388 155.26146Q27.925013 154.82396 27.706263 154.44896Q27.471888 154.07396 27.003138 153.82396Q26.534388 153.57396 25.956263 153.49583Q25.503138 153.46458 25.206263 153.48021Q24.612513 153.54271 24.268763 153.83958Q23.925013 154.13646 23.909388 154.63646Q23.893763 155.30833 24.440638 155.79271Q24.987513 156.27708 25.893763 156.38646L26.003138 156.38646ZM23.268763 149.77708L23.925013 149.90208Q23.143763 149.19896 23.175013 148.27708Q23.190638 147.54271 23.690638 147.18333Q24.190638 146.82396 25.081263 146.91771L28.550013 147.49583L28.550013 148.37083L25.065638 147.79271Q24.831263 147.76146 24.628138 147.79271Q23.940638 147.87083 23.925013 148.58958Q23.909388 149.38646 24.784388 149.99583L28.550013 150.65208L28.550013 151.52708L23.268763 150.62083L23.268763 149.77708ZM25.893763 146.27708Q25.096888 146.18333 24.456263 145.83958Q23.800013 145.48021 23.471888 144.98021Q23.143763 144.46458 23.159388 143.85521Q23.190638 142.98021 23.815638 142.49583L21.050013 141.99583L21.050013 141.10521L28.550013 142.41771L28.550013 143.21458L27.987513 143.12083Q28.675013 143.74583 28.643763 144.66771Q28.628138 145.40208 28.081263 145.83958Q27.518763 146.26146 26.581263 146.30833Q26.300013 146.32396 25.893763 146.27708ZM26.409388 145.43333Q27.096888 145.44896 27.487513 145.18333Q27.878138 144.91771 27.878138 144.40208Q27.925013 143.63646 27.112513 143.04271L24.675013 142.62083Q23.956263 142.91771 23.925013 143.68333Q23.909388 144.21458 24.253138 144.62083Q24.581263 145.01146 25.175013 145.21458Q25.768763 145.41771 26.409388 145.43333Z" fill-rule="nonzero"/><path fill="#b7b7b7" d="M75.59688 298.91876Q75.59688 300.4969 75.05 301.27814Q74.51875 302.04376 73.3625 302.04376Q72.22188 302.04376 71.675 301.29376Q71.12813 300.54376 71.1125 299.04376L71.1125 297.84064Q71.1125 296.2625 71.64375 295.5125Q72.19063 294.7469 73.34688 294.7469Q74.50313 294.7469 75.03438 295.48126Q75.58125 296.21564 75.59688 297.7469L75.59688 298.91876ZM74.69063 297.6844Q74.69063 296.52814 74.3625 296.0125Q74.05 295.48126 73.34688 295.48126Q72.65938 295.48126 72.33125 296.0125Q72.01875 296.52814 72.01875 297.60626L72.01875 299.0594Q72.01875 300.21564 72.34688 300.7625Q72.69063 301.3094 73.3625 301.3094Q74.03438 301.3094 74.34688 300.79376Q74.675 300.27814 74.69063 299.16876L74.69063 297.6844Z" fill-rule="nonzero"/><path fill="#b7b7b7" d="M51.8 222.27222L47.14375 222.27222L47.14375 221.61597L49.596874 218.88159Q50.14375 218.27222 50.346874 217.88159Q50.565624 217.49097 50.565624 217.06909Q50.565624 216.52222 50.221874 216.16284Q49.89375 215.80347 49.33125 215.80347Q48.659374 215.80347 48.284374 216.19409Q47.909374 216.56909 47.909374 217.25659L47.003124 217.25659Q47.003124 216.27222 47.628124 215.67847Q48.26875 215.06909 49.33125 215.06909Q50.315624 215.06909 50.89375 215.58472Q51.471874 216.10034 51.471874 216.97534Q51.471874 218.02222 50.128124 219.47534L48.2375 221.53784L51.8 221.53784L51.8 222.27222ZM57.596874 219.24097Q57.596874 220.81909 57.05 221.60034Q56.51875 222.36597 55.3625 222.36597Q54.221874 222.36597 53.675 221.61597Q53.128124 220.86597 53.1125 219.36597L53.1125 218.16284Q53.1125 216.58472 53.64375 215.83472Q54.190624 215.06909 55.346874 215.06909Q56.503124 215.06909 57.034374 215.80347Q57.58125 216.53784 57.596874 218.06909L57.596874 219.24097ZM56.690624 218.00659Q56.690624 216.85034 56.3625 216.33472Q56.05 215.80347 55.346874 215.80347Q54.659374 215.80347 54.33125 216.33472Q54.01875 216.85034 54.01875 217.92847L54.01875 219.38159Q54.01875 220.53784 54.346874 221.08472Q54.690624 221.63159 55.3625 221.63159Q56.034374 221.63159 56.346874 221.11597Q56.675 220.60034 56.690624 219.49097L56.690624 218.00659ZM63.596874 219.24097Q63.596874 220.81909 63.05 221.60034Q62.51875 222.36597 61.3625 222.36597Q60.221874 222.36597 59.675 221.61597Q59.128124 220.86597 59.1125 219.36597L59.1125 218.16284Q59.1125 216.58472 59.64375 215.83472Q60.190624 215.06909 61.346874 215.06909Q62.503124 215.06909 63.034374 215.80347Q63.58125 216.53784 63.596874 218.06909L63.596874 219.24097ZM62.690624 218.00659Q62.690624 216.85034 62.3625 216.33472Q62.05 215.80347 61.346874 215.80347Q60.659374 215.80347 60.33125 216.33472Q60.01875 216.85034 60.01875 217.92847L60.01875 219.38159Q60.01875 220.53784 60.346874 221.08472Q60.690624 221.63159 61.3625 221.63159Q62.034374 221.63159 62.346874 221.11597Q62.675 220.60034 62.690624 219.49097L62.690624 218.00659ZM69.59688 219.24097Q69.59688 220.81909 69.05 221.60034Q68.51875 222.36597 67.3625 222.36597Q66.22188 222.36597 65.675 221.61597Q65.12813 220.86597 65.1125 219.36597L65.1125 218.16284Q65.1125 216.58472 65.64375 215.83472Q66.19063 215.06909 67.34688 215.06909Q68.50313 215.06909 69.03438 215.80347Q69.58125 216.53784 69.59688 218.06909L69.59688 219.24097ZM68.69063 218.00659Q68.69063 216.85034 68.3625 216.33472Q68.05 215.80347 67.34688 215.80347Q66.65938 215.80347 66.33125 216.33472Q66.01875 216.85034 66.01875 217.92847L66.01875 219.38159Q66.01875 220.53784 66.34688 221.08472Q66.69063 221.63159 67.3625 221.63159Q68.03438 221.63159 68.34688 221.11597Q68.675 220.60034 68.69063 219.49097L68.69063 218.00659ZM75.59688 219.24097Q75.59688 220.81909 75.05 221.60034Q74.51875 222.36597 73.3625 222.36597Q72.22188 222.36597 71.675 221.61597Q71.12813 220.86597 71.1125 219.36597L71.1125 218.16284Q71.1125 216.58472 71.64375 215.83472Q72.19063 215.06909 73.34688 215.06909Q74.50313 215.06909 75.03438 215.80347Q75.58125 216.53784 75.59688 218.06909L75.59688 219.24097ZM74.69063 218.00659Q74.69063 216.85034 74.3625 216.33472Q74.05 215.80347 73.34688 215.80347Q72.65938 215.80347 72.33125 216.33472Q72.01875 216.85034 72.01875 217.92847L72.01875 219.38159Q72.01875 220.53784 72.34688 221.08472Q72.69063 221.63159 73.3625 221.63159Q74.03438 221.63159 74.34688 221.11597Q74.675 220.60034 74.69063 219.49097L74.69063 218.00659Z" fill-rule="nonzero"/><path fill="#b7b7b7" d="M50.95625 140.20383L51.940624 140.20383L51.940624 140.9382L50.95625 140.9382L50.95625 142.59445L50.05 142.59445L50.05 140.9382L46.815624 140.9382L46.815624 140.40695L49.9875 135.48508L50.95625 135.48508L50.95625 140.20383ZM47.83125 140.20383L50.05 140.20383L50.05 136.71945L49.940624 136.92258L47.83125 140.20383ZM57.596874 139.5632Q57.596874 141.14133 57.05 141.92258Q56.51875 142.6882 55.3625 142.6882Q54.221874 142.6882 53.675 141.9382Q53.128124 141.1882 53.1125 139.6882L53.1125 138.48508Q53.1125 136.90695 53.64375 136.15695Q54.190624 135.39133 55.346874 135.39133Q56.503124 135.39133 57.034374 136.1257Q57.58125 136.86008 57.596874 138.39133L57.596874 139.5632ZM56.690624 138.32883Q56.690624 137.17258 56.3625 136.65695Q56.05 136.1257 55.346874 136.1257Q54.659374 136.1257 54.33125 136.65695Q54.01875 137.17258 54.01875 138.2507L54.01875 139.70383Q54.01875 140.86008 54.346874 141.40695Q54.690624 141.95383 55.3625 141.95383Q56.034374 141.95383 56.346874 141.4382Q56.675 140.92258 56.690624 139.8132L56.690624 138.32883ZM63.596874 139.5632Q63.596874 141.14133 63.05 141.92258Q62.51875 142.6882 61.3625 142.6882Q60.221874 142.6882 59.675 141.9382Q59.128124 141.1882 59.1125 139.6882L59.1125 138.48508Q59.1125 136.90695 59.64375 136.15695Q60.190624 135.39133 61.346874 135.39133Q62.503124 135.39133 63.034374 136.1257Q63.58125 136.86008 63.596874 138.39133L63.596874 139.5632ZM62.690624 138.32883Q62.690624 137.17258 62.3625 136.65695Q62.05 136.1257 61.346874 136.1257Q60.659374 136.1257 60.33125 136.65695Q60.01875 137.17258 60.01875 138.2507L60.01875 139.70383Q60.01875 140.86008 60.346874 141.40695Q60.690624 141.95383 61.3625 141.95383Q62.034374 141.95383 62.346874 141.4382Q62.675 140.92258 62.690624 139.8132L62.690624 138.32883ZM69.59688 139.5632Q69.59688 141.14133 69.05 141.92258Q68.51875 142.6882 67.3625 142.6882Q66.22188 142.6882 65.675 141.9382Q65.12813 141.1882 65.1125 139.6882L65.1125 138.48508Q65.1125 136.90695 65.64375 136.15695Q66.19063 135.39133 67.34688 135.39133Q68.50313 135.39133 69.03438 136.1257Q69.58125 136.86008 69.59688 138.39133L69.59688 139.5632ZM68.69063 138.32883Q68.69063 137.17258 68.3625 136.65695Q68.05 136.1257 67.34688 136.1257Q66.65938 136.1257 66.33125 136.65695Q66.01875 137.17258 66.01875 138.2507L66.01875 139.70383Q66.01875 140.86008 66.34688 141.40695Q66.69063 141.95383 67.3625 141.95383Q68.03438 141.95383 68.34688 141.4382Q68.675 140.92258 68.69063 139.8132L68.69063 138.32883ZM75.59688 139.5632Q75.59688 141.14133 75.05 141.92258Q74.51875 142.6882 73.3625 142.6882Q72.22188 142.6882 71.675 141.9382Q71.12813 141.1882 71.1125 139.6882L71.1125 138.48508Q71.1125 136.90695 71.64375 136.15695Q72.19063 135.39133 73.34688 135.39133Q74.50313 135.39133 75.03438 136.1257Q75.58125 136.86008 75.59688 138.39133L75.59688 139.5632ZM74.69063 138.32883Q74.69063 137.17258 74.3625 136.65695Q74.05 136.1257 73.34688 136.1257Q72.65938 136.1257 72.33125 136.65695Q72.01875 137.17258 72.01875 138.2507L72.01875 139.70383Q72.01875 140.86008 72.34688 141.40695Q72.69063 141.95383 73.3625 141.95383Q74.03438 141.95383 74.34688 141.4382Q74.675 140.92258 74.69063 139.8132L74.69063 138.32883Z" fill-rule="nonzero"/><path fill="#b7b7b7" d="M50.690624 55.807293L50.690624 56.572918L50.51875 56.572918Q49.471874 56.588543 48.846874 57.197918Q48.221874 57.791668 48.1125 58.901043Q48.675 58.260418 49.64375 58.260418Q50.58125 58.260418 51.128124 58.916668Q51.690624 59.557293 51.690624 60.604168Q51.690624 61.697918 51.08125 62.354168Q50.4875 63.010418 49.4875 63.010418Q48.471874 63.010418 47.83125 62.229168Q47.190624 61.447918 47.190624 60.213543L47.190624 59.869793Q47.190624 57.901043 48.01875 56.869793Q48.8625 55.822918 50.51875 55.807293L50.690624 55.807293ZM49.503124 59.010418Q49.034374 59.010418 48.64375 59.291668Q48.253124 59.557293 48.096874 59.979168L48.096874 60.307293Q48.096874 61.197918 48.4875 61.729168Q48.89375 62.260418 49.4875 62.260418Q50.096874 62.260418 50.440624 61.822918Q50.8 61.369793 50.8 60.635418Q50.8 59.901043 50.440624 59.463543Q50.08125 59.010418 49.503124 59.010418ZM57.596874 59.885418Q57.596874 61.463543 57.05 62.244793Q56.51875 63.010418 55.3625 63.010418Q54.221874 63.010418 53.675 62.260418Q53.128124 61.510418 53.1125 60.010418L53.1125 58.807293Q53.1125 57.229168 53.64375 56.479168Q54.190624 55.713543 55.346874 55.713543Q56.503124 55.713543 57.034374 56.447918Q57.58125 57.182293 57.596874 58.713543L57.596874 59.885418ZM56.690624 58.651043Q56.690624 57.494793 56.3625 56.979168Q56.05 56.447918 55.346874 56.447918Q54.659374 56.447918 54.33125 56.979168Q54.01875 57.494793 54.01875 58.572918L54.01875 60.026043Q54.01875 61.182293 54.346874 61.729168Q54.690624 62.276043 55.3625 62.276043Q56.034374 62.276043 56.346874 61.760418Q56.675 61.244793 56.690624 60.135418L56.690624 58.651043ZM63.596874 59.885418Q63.596874 61.463543 63.05 62.244793Q62.51875 63.010418 61.3625 63.010418Q60.221874 63.010418 59.675 62.260418Q59.128124 61.510418 59.1125 60.010418L59.1125 58.807293Q59.1125 57.229168 59.64375 56.479168Q60.190624 55.713543 61.346874 55.713543Q62.503124 55.713543 63.034374 56.447918Q63.58125 57.182293 63.596874 58.713543L63.596874 59.885418ZM62.690624 58.651043Q62.690624 57.494793 62.3625 56.979168Q62.05 56.447918 61.346874 56.447918Q60.659374 56.447918 60.33125 56.979168Q60.01875 57.494793 60.01875 58.572918L60.01875 60.026043Q60.01875 61.182293 60.346874 61.729168Q60.690624 62.276043 61.3625 62.276043Q62.034374 62.276043 62.346874 61.760418Q62.675 61.244793 62.690624 60.135418L62.690624 58.651043ZM69.59688 59.885418Q69.59688 61.463543 69.05 62.244793Q68.51875 63.010418 67.3625 63.010418Q66.22188 63.010418 65.675 62.260418Q65.12813 61.510418 65.1125 60.010418L65.1125 58.807293Q65.1125 57.229168 65.64375 56.479168Q66.19063 55.713543 67.34688 55.713543Q68.50313 55.713543 69.03438 56.447918Q69.58125 57.182293 69.59688 58.713543L69.59688 59.885418ZM68.69063 58.651043Q68.69063 57.494793 68.3625 56.979168Q68.05 56.447918 67.34688 56.447918Q66.65938 56.447918 66.33125 56.979168Q66.01875 57.494793 66.01875 58.572918L66.01875 60.026043Q66.01875 61.182293 66.34688 61.729168Q66.69063 62.276043 67.3625 62.276043Q68.03438 62.276043 68.34688 61.760418Q68.675 61.244793 68.69063 60.135418L68.69063 58.651043ZM75.59688 59.885418Q75.59688 61.463543 75.05 62.244793Q74.51875 63.010418 73.3625 63.010418Q72.22188 63.010418 71.675 62.260418Q71.12813 61.510418 71.1125 60.010418L71.1125 58.807293Q71.1125 57.229168 71.64375 56.479168Q72.19063 55.713543 73.34688 55.713543Q74.50313 55.713543 75.03438 56.447918Q75.58125 57.182293 75.59688 58.713543L75.59688 59.885418ZM74.69063 58.651043Q74.69063 57.494793 74.3625 56.979168Q74.05 56.447918 73.34688 56.447918Q72.65938 56.447918 72.33125 56.979168Q72.01875 57.494793 72.01875 58.572918L72.01875 60.026043Q72.01875 61.182293 72.34688 61.729168Q72.69063 62.276043 73.3625 62.276043Q74.03438 62.276043 74.34688 61.760418Q74.675 61.244793 74.69063 60.135418L74.69063 58.651043Z" fill-rule="nonzero"/><path fill="#000000" d="M119.5209 316.45L118.44277 316.45L118.44277 309.23126L116.25527 310.02814L116.25527 309.04376L119.36465 307.8719L119.5209 307.8719L119.5209 316.45ZM128.31778 312.8094Q128.31778 314.71564 127.66152 315.65314Q127.0209 316.575 125.63027 316.575Q124.2709 316.575 123.61465 315.66876Q122.9584 314.7625 122.92715 312.95L122.92715 311.5125Q122.92715 309.6219 123.56777 308.71564Q124.22402 307.79376 125.61465 307.79376Q126.98965 307.79376 127.6459 308.6844Q128.30215 309.5594 128.31778 311.40314L128.31778 312.8094ZM127.22402 311.325Q127.22402 309.95 126.8334 309.325Q126.4584 308.6844 125.61465 308.6844Q124.78652 308.6844 124.3959 309.325Q124.0209 309.95 124.0209 311.2469L124.0209 312.98126Q124.0209 314.35626 124.41152 315.02814Q124.81777 315.6844 125.63027 315.6844Q126.42715 315.6844 126.81777 315.0594Q127.2084 314.4344 127.22402 313.10626L127.22402 311.325Z" fill-rule="nonzero"/><path fill="#000000" d="M181.85626 316.45L176.26251 316.45L176.26251 315.66876L179.21564 312.3875Q179.87189 311.6375 180.12189 311.1844Q180.37189 310.71564 180.37189 310.21564Q180.37189 309.54376 179.96564 309.1219Q179.57501 308.6844 178.88751 308.6844Q178.09064 308.6844 177.63751 309.15314Q177.18439 309.60626 177.18439 310.4344L176.10626 310.4344Q176.10626 309.2469 176.85626 308.52814Q177.62189 307.79376 178.88751 307.79376Q180.09064 307.79376 180.77814 308.41876Q181.46564 309.04376 181.46564 310.09064Q181.46564 311.34064 179.85626 313.09064L177.57501 315.5594L181.85626 315.5594L181.85626 316.45ZM183.76251 312.16876L184.20001 307.91876L188.57501 307.91876L188.57501 308.91876L185.12189 308.91876L184.85626 311.2469Q185.49689 310.8719 186.29376 310.8719Q187.45001 310.8719 188.13751 311.65314Q188.82501 312.41876 188.82501 313.73126Q188.82501 315.04376 188.10626 315.8094Q187.40314 316.575 186.12189 316.575Q184.99689 316.575 184.27814 315.95Q183.55939 315.3094 183.46564 314.2L184.48126 314.2Q184.59064 314.9344 185.01251 315.3094Q185.43439 315.6844 186.12189 315.6844Q186.87189 315.6844 187.30939 315.16876Q187.74689 314.65314 187.74689 313.7469Q187.74689 312.8875 187.27814 312.3719Q186.80939 311.85626 186.02814 311.85626Q185.32501 311.85626 184.91876 312.15314L184.63751 312.3875L183.76251 312.16876Z" fill-rule="nonzero"/><path fill="#000000" d="M237.06662 312.16876L237.50412 307.91876L241.87912 307.91876L241.87912 308.91876L238.426 308.91876L238.16037 311.2469Q238.801 310.8719 239.59787 310.8719Q240.75412 310.8719 241.44162 311.65314Q242.12912 312.41876 242.12912 313.73126Q242.12912 315.04376 241.41037 315.8094Q240.70724 316.575 239.426 316.575Q238.301 316.575 237.58224 315.95Q236.8635 315.3094 236.76974 314.2L237.78537 314.2Q237.89474 314.9344 238.31662 315.3094Q238.7385 315.6844 239.426 315.6844Q240.176 315.6844 240.6135 315.16876Q241.051 314.65314 241.051 313.7469Q241.051 312.8875 240.58224 312.3719Q240.1135 311.85626 239.33224 311.85626Q238.62912 311.85626 238.22287 312.15314L237.94162 312.3875L237.06662 312.16876ZM248.926 312.8094Q248.926 314.71564 248.26974 315.65314Q247.62912 316.575 246.2385 316.575Q244.87912 316.575 244.22287 315.66876Q243.56662 314.7625 243.53537 312.95L243.53537 311.5125Q243.53537 309.6219 244.176 308.71564Q244.83224 307.79376 246.22287 307.79376Q247.59787 307.79376 248.25412 308.6844Q248.91037 309.5594 248.926 311.40314L248.926 312.8094ZM247.83224 311.325Q247.83224 309.95 247.44162 309.325Q247.06662 308.6844 246.22287 308.6844Q245.39474 308.6844 245.00412 309.325Q244.62912 309.95 244.62912 311.2469L244.62912 312.98126Q244.62912 314.35626 245.01974 315.02814Q245.426 315.6844 246.2385 315.6844Q247.03537 315.6844 247.426 315.0594Q247.81662 314.4344 247.83224 313.10626L247.83224 311.325Z" fill-rule="nonzero"/><path fill="#000000" d="M296.93323 316.45L295.8551 316.45L295.8551 309.23126L293.6676 310.02814L293.6676 309.04376L296.77698 307.8719L296.93323 307.8719L296.93323 316.45ZM305.7301 312.8094Q305.7301 314.71564 305.07385 315.65314Q304.43323 316.575 303.0426 316.575Q301.68323 316.575 301.02698 315.66876Q300.37073 314.7625 300.33948 312.95L300.33948 311.5125Q300.33948 309.6219 300.9801 308.71564Q301.63635 307.79376 303.02698 307.79376Q304.40198 307.79376 305.05823 308.6844Q305.71448 309.5594 305.7301 311.40314L305.7301 312.8094ZM304.63635 311.325Q304.63635 309.95 304.24573 309.325Q303.87073 308.6844 303.02698 308.6844Q302.19885 308.6844 301.80823 309.325Q301.43323 309.95 301.43323 311.2469L301.43323 312.98126Q301.43323 314.35626 301.82385 315.02814Q302.2301 315.6844 303.0426 315.6844Q303.83948 315.6844 304.2301 315.0594Q304.62073 314.4344 304.63635 313.10626L304.63635 311.325ZM312.7301 312.8094Q312.7301 314.71564 312.07385 315.65314Q311.43323 316.575 310.0426 316.575Q308.68323 316.575 308.02698 315.66876Q307.37073 314.7625 307.33948 312.95L307.33948 311.5125Q307.33948 309.6219 307.9801 308.71564Q308.63635 307.79376 310.02698 307.79376Q311.40198 307.79376 312.05823 308.6844Q312.71448 309.5594 312.7301 311.40314L312.7301 312.8094ZM311.63635 311.325Q311.63635 309.95 311.24573 309.325Q310.87073 308.6844 310.02698 308.6844Q309.19885 308.6844 308.80823 309.325Q308.43323 309.95 308.43323 311.2469L308.43323 312.98126Q308.43323 314.35626 308.82385 315.02814Q309.2301 315.6844 310.0426 315.6844Q310.83948 315.6844 311.2301 315.0594Q311.62073 314.4344 311.63635 313.10626L311.63635 311.325Z" fill-rule="nonzero"/><path fill="#000000" d="M354.17484 312.16876L354.61234 307.91876L358.98734 307.91876L358.98734 308.91876L355.5342 308.91876L355.2686 311.2469Q355.9092 310.8719 356.7061 310.8719Q357.86234 310.8719 358.54984 311.65314Q359.23734 312.41876 359.23734 313.73126Q359.23734 315.04376 358.5186 315.8094Q357.81546 316.575 356.5342 316.575Q355.4092 316.575 354.69046 315.95Q353.9717 315.3094 353.87796 314.2L354.8936 314.2Q355.00296 314.9344 355.42484 315.3094Q355.8467 315.6844 356.5342 315.6844Q357.2842 315.6844 357.7217 315.16876Q358.1592 314.65314 358.1592 313.7469Q358.1592 312.8875 357.69046 312.3719Q357.2217 311.85626 356.44046 311.85626Q355.73734 311.85626 355.3311 312.15314L355.04984 312.3875L354.17484 312.16876ZM366.0342 312.8094Q366.0342 314.71564 365.37796 315.65314Q364.73734 316.575 363.3467 316.575Q361.98734 316.575 361.3311 315.66876Q360.67484 314.7625 360.6436 312.95L360.6436 311.5125Q360.6436 309.6219 361.2842 308.71564Q361.94046 307.79376 363.3311 307.79376Q364.7061 307.79376 365.36234 308.6844Q366.0186 309.5594 366.0342 311.40314L366.0342 312.8094ZM364.94046 311.325Q364.94046 309.95 364.54984 309.325Q364.17484 308.6844 363.3311 308.6844Q362.50296 308.6844 362.11234 309.325Q361.73734 309.95 361.73734 311.2469L361.73734 312.98126Q361.73734 314.35626 362.12796 315.02814Q362.5342 315.6844 363.3467 315.6844Q364.1436 315.6844 364.5342 315.0594Q364.92484 314.4344 364.94046 313.10626L364.94046 311.325ZM373.0342 312.8094Q373.0342 314.71564 372.37796 315.65314Q371.73734 316.575 370.3467 316.575Q368.98734 316.575 368.3311 315.66876Q367.67484 314.7625 367.6436 312.95L367.6436 311.5125Q367.6436 309.6219 368.2842 308.71564Q368.94046 307.79376 370.3311 307.79376Q371.7061 307.79376 372.36234 308.6844Q373.0186 309.5594 373.0342 311.40314L373.0342 312.8094ZM371.94046 311.325Q371.94046 309.95 371.54984 309.325Q371.17484 308.6844 370.3311 308.6844Q369.50296 308.6844 369.11234 309.325Q368.73734 309.95 368.73734 311.2469L368.73734 312.98126Q368.73734 314.35626 369.12796 315.02814Q369.5342 315.6844 370.3467 315.6844Q371.1436 315.6844 371.5342 315.0594Q371.92484 314.4344 371.94046 313.10626L371.94046 311.325Z" fill-rule="nonzero"/><path fill="#000000" d="M414.04147 316.45L412.96335 316.45L412.96335 309.23126L410.77585 310.02814L410.77585 309.04376L413.88522 307.8719L414.04147 307.8719L414.04147 316.45ZM422.83835 312.8094Q422.83835 314.71564 422.1821 315.65314Q421.54147 316.575 420.15085 316.575Q418.79147 316.575 418.13522 315.66876Q417.47897 314.7625 417.44772 312.95L417.44772 311.5125Q417.44772 309.6219 418.08835 308.71564Q418.7446 307.79376 420.13522 307.79376Q421.51022 307.79376 422.16647 308.6844Q422.82272 309.5594 422.83835 311.40314L422.83835 312.8094ZM421.7446 311.325Q421.7446 309.95 421.35397 309.325Q420.97897 308.6844 420.13522 308.6844Q419.3071 308.6844 418.91647 309.325Q418.54147 309.95 418.54147 311.2469L418.54147 312.98126Q418.54147 314.35626 418.9321 315.02814Q419.33835 315.6844 420.15085 315.6844Q420.94772 315.6844 421.33835 315.0594Q421.72897 314.4344 421.7446 313.10626L421.7446 311.325ZM429.83835 312.8094Q429.83835 314.71564 429.1821 315.65314Q428.54147 316.575 427.15085 316.575Q425.79147 316.575 425.13522 315.66876Q424.47897 314.7625 424.44772 312.95L424.44772 311.5125Q424.44772 309.6219 425.08835 308.71564Q425.7446 307.79376 427.13522 307.79376Q428.51022 307.79376 429.16647 308.6844Q429.82272 309.5594 429.83835 311.40314L429.83835 312.8094ZM428.7446 311.325Q428.7446 309.95 428.35397 309.325Q427.97897 308.6844 427.13522 308.6844Q426.3071 308.6844 425.91647 309.325Q425.54147 309.95 425.54147 311.2469L425.54147 312.98126Q425.54147 314.35626 425.9321 315.02814Q426.33835 315.6844 427.15085 315.6844Q427.94772 315.6844 428.33835 315.0594Q428.72897 314.4344 428.7446 313.10626L428.7446 311.325ZM436.83835 312.8094Q436.83835 314.71564 436.1821 315.65314Q435.54147 316.575 434.15085 316.575Q432.79147 316.575 432.13522 315.66876Q431.47897 314.7625 431.44772 312.95L431.44772 311.5125Q431.44772 309.6219 432.08835 308.71564Q432.7446 307.79376 434.13522 307.79376Q435.51022 307.79376 436.16647 308.6844Q436.82272 309.5594 436.83835 311.40314L436.83835 312.8094ZM435.7446 311.325Q435.7446 309.95 435.35397 309.325Q434.97897 308.6844 434.13522 308.6844Q433.3071 308.6844 432.91647 309.325Q432.54147 309.95 432.54147 311.2469L432.54147 312.98126Q432.54147 314.35626 432.9321 315.02814Q433.33835 315.6844 434.15085 315.6844Q434.94772 315.6844 435.33835 315.0594Q435.72897 314.4344 435.7446 313.10626L435.7446 311.325Z" fill-rule="nonzero"/><path fill="#4a86e8" d="M484.45 54.916668C484.45 54.364384 484.8977 53.916668 485.45 53.916668L495.45 53.916668C496.0023 53.916668 496.45 54.364384 496.45 54.916668L496.45 64.916664C496.45 65.46895 496.0023 65.916664 495.45 65.916664L485.45 65.916664C484.8977 65.916664 484.45 65.46895 484.45 64.916664Z" fill-rule="nonzero"/><path fill="#666666" d="M511.3719 60.260418Q511.3719 61.401043 510.98126 62.260418Q510.60626 63.119793 509.8875 63.572918Q509.1844 64.02605 508.23126 64.02605Q507.3094 64.02605 506.59064 63.572918Q505.8875 63.119793 505.48126 62.276043Q505.09064 61.432293 505.09064 60.322918L505.09064 59.760418Q505.09064 58.635418 505.48126 57.776043Q505.8719 56.901043 506.59064 56.447918Q507.3094 55.994793 508.23126 55.994793Q509.16876 55.994793 509.8875 56.447918Q510.60626 56.901043 510.98126 57.760418Q511.3719 58.619793 511.3719 59.760418L511.3719 60.260418ZM510.34064 59.760418Q510.34064 58.369793 509.77814 57.619793Q509.23126 56.869793 508.23126 56.869793Q507.2469 56.869793 506.6844 57.619793Q506.1219 58.369793 506.10626 59.682293L506.10626 60.260418Q506.10626 61.604168 506.66876 62.385418Q507.2469 63.151043 508.23126 63.151043Q509.23126 63.151043 509.77814 62.432293Q510.325 61.697918 510.34064 60.338543L510.34064 59.760418ZM516.79376 63.916668Q516.7 63.744793 516.65314 63.307293Q515.95 64.02605 514.9969 64.02605Q514.1375 64.02605 513.575 63.541668Q513.02814 63.057293 513.02814 62.307293Q513.02814 61.401043 513.71564 60.901043Q514.41876 60.385418 515.66876 60.385418L516.6375 60.385418L516.6375 59.932293Q516.6375 59.416668 516.325 59.104168Q516.0125 58.791668 515.40314 58.791668Q514.8719 58.791668 514.5125 59.072918Q514.15314 59.338543 514.15314 59.713543L513.15314 59.713543Q513.15314 59.276043 513.46564 58.869793Q513.77814 58.463543 514.29376 58.229168Q514.825 57.994793 515.46564 57.994793Q516.46564 57.994793 517.02814 58.494793Q517.60626 58.994793 517.6219 59.885418L517.6219 62.557293Q517.6219 63.354168 517.825 63.822918L517.825 63.916668L516.79376 63.916668ZM515.1375 63.166668Q515.60626 63.166668 516.02814 62.932293Q516.45 62.682293 516.6375 62.291668L516.6375 61.104168L515.85626 61.104168Q514.02814 61.104168 514.02814 62.166668Q514.02814 62.635418 514.34064 62.901043Q514.65314 63.166668 515.1375 63.166668ZM520.54376 56.697918L520.54376 58.104168L521.6375 58.104168L521.6375 58.869793L520.54376 58.869793L520.54376 62.479168Q520.54376 62.822918 520.6844 63.010418Q520.84064 63.182293 521.1844 63.182293Q521.35626 63.182293 521.66876 63.104168L521.66876 63.916668Q521.2625 64.02605 520.90314 64.02605Q520.23126 64.02605 519.8875 63.619793Q519.5594 63.213543 519.5594 62.479168L519.5594 58.869793L518.4969 58.869793L518.4969 58.104168L519.5594 58.104168L519.5594 56.697918L520.54376 56.697918ZM526.04376 59.729168L528.23126 59.729168L528.23126 60.666668L526.04376 60.666668L526.04376 63.135418L525.04376 63.135418L525.04376 60.666668L522.8719 60.666668L522.8719 59.729168L525.04376 59.729168L525.04376 57.432293L526.04376 57.432293L526.04376 59.729168ZM532.04376 59.729168L534.23126 59.729168L534.23126 60.666668L532.04376 60.666668L532.04376 63.135418L531.04376 63.135418L531.04376 60.666668L528.8719 60.666668L528.8719 59.729168L531.04376 59.729168L531.04376 57.432293L532.04376 57.432293L532.04376 59.729168Z" fill-rule="nonzero"/><path fill="#6aa84f" d="M484.45 78.916664C484.45 78.36438 484.8977 77.916664 485.45 77.916664L495.45 77.916664C496.0023 77.916664 496.45 78.36438 496.45 78.916664L496.45 88.916664C496.45 89.46895 496.0023 89.916664 495.45 89.916664L485.45 89.916664C484.8977 89.916664 484.45 89.46895 484.45 88.916664Z" fill-rule="nonzero"/><path fill="#666666" d="M511.3719 84.260414Q511.3719 85.40104 510.98126 86.260414Q510.60626 87.11979 509.8875 87.572914Q509.1844 88.02604 508.23126 88.02604Q507.3094 88.02604 506.59064 87.572914Q505.8875 87.11979 505.48126 86.27604Q505.09064 85.43229 505.09064 84.322914L505.09064 83.760414Q505.09064 82.635414 505.48126 81.77604Q505.8719 80.90104 506.59064 80.447914Q507.3094 79.99479 508.23126 79.99479Q509.16876 79.99479 509.8875 80.447914Q510.60626 80.90104 510.98126 81.760414Q511.3719 82.61979 511.3719 83.760414L511.3719 84.260414ZM510.34064 83.760414Q510.34064 82.36979 509.77814 81.61979Q509.23126 80.86979 508.23126 80.86979Q507.2469 80.86979 506.6844 81.61979Q506.1219 82.36979 506.10626 83.68229L506.10626 84.260414Q506.10626 85.604164 506.66876 86.385414Q507.2469 87.15104 508.23126 87.15104Q509.23126 87.15104 509.77814 86.43229Q510.325 85.697914 510.34064 84.33854L510.34064 83.760414ZM516.79376 87.916664Q516.7 87.74479 516.65314 87.30729Q515.95 88.02604 514.9969 88.02604Q514.1375 88.02604 513.575 87.541664Q513.02814 87.05729 513.02814 86.30729Q513.02814 85.40104 513.71564 84.90104Q514.41876 84.385414 515.66876 84.385414L516.6375 84.385414L516.6375 83.93229Q516.6375 83.416664 516.325 83.104164Q516.0125 82.791664 515.40314 82.791664Q514.8719 82.791664 514.5125 83.072914Q514.15314 83.33854 514.15314 83.71354L513.15314 83.71354Q513.15314 83.27604 513.46564 82.86979Q513.77814 82.46354 514.29376 82.229164Q514.825 81.99479 515.46564 81.99479Q516.46564 81.99479 517.02814 82.49479Q517.60626 82.99479 517.6219 83.885414L517.6219 86.55729Q517.6219 87.354164 517.825 87.822914L517.825 87.916664L516.79376 87.916664ZM515.1375 87.166664Q515.60626 87.166664 516.02814 86.93229Q516.45 86.68229 516.6375 86.291664L516.6375 85.104164L515.85626 85.104164Q514.02814 85.104164 514.02814 86.166664Q514.02814 86.635414 514.34064 86.90104Q514.65314 87.166664 515.1375 87.166664ZM520.54376 80.697914L520.54376 82.104164L521.6375 82.104164L521.6375 82.86979L520.54376 82.86979L520.54376 86.479164Q520.54376 86.822914 520.6844 87.010414Q520.84064 87.18229 521.1844 87.18229Q521.35626 87.18229 521.66876 87.104164L521.66876 87.916664Q521.2625 88.02604 520.90314 88.02604Q520.23126 88.02604 519.8875 87.61979Q519.5594 87.21354 519.5594 86.479164L519.5594 82.86979L518.4969 82.86979L518.4969 82.104164L519.5594 82.104164L519.5594 80.697914L520.54376 80.697914ZM526.04376 83.729164L528.23126 83.729164L528.23126 84.666664L526.04376 84.666664L526.04376 87.135414L525.04376 87.135414L525.04376 84.666664L522.8719 84.666664L522.8719 83.729164L525.04376 83.729164L525.04376 81.43229L526.04376 81.43229L526.04376 83.729164ZM532.04376 83.729164L534.23126 83.729164L534.23126 84.666664L532.04376 84.666664L532.04376 87.135414L531.04376 87.135414L531.04376 84.666664L528.8719 84.666664L528.8719 83.729164L531.04376 83.729164L531.04376 81.43229L532.04376 81.43229L532.04376 83.729164ZM539.6844 80.08854L542.2469 86.479164L544.8094 80.08854L546.1375 80.08854L546.1375 87.916664L545.10626 87.916664L545.10626 84.86979L545.2 81.58854L542.6375 87.916664L541.85626 87.916664L539.29376 81.604164L539.3875 84.86979L539.3875 87.916664L538.35626 87.916664L538.35626 80.08854L539.6844 80.08854ZM547.9344 84.96354Q547.9344 84.104164 548.2625 83.43229Q548.60626 82.74479 549.2 82.36979Q549.8094 81.99479 550.575 81.99479Q551.7625 81.99479 552.4969 82.822914Q553.23126 83.635414 553.23126 85.010414L553.23126 85.072914Q553.23126 85.916664 552.90314 86.604164Q552.575 87.27604 551.96564 87.65104Q551.3719 88.02604 550.59064 88.02604Q549.40314 88.02604 548.66876 87.21354Q547.9344 86.385414 547.9344 85.02604L547.9344 84.96354ZM548.9344 85.072914Q548.9344 86.041664 549.3875 86.635414Q549.84064 87.21354 550.59064 87.21354Q551.34064 87.21354 551.77814 86.61979Q552.23126 86.02604 552.23126 84.96354Q552.23126 83.99479 551.77814 83.40104Q551.325 82.80729 550.575 82.80729Q549.84064 82.80729 549.3875 83.40104Q548.9344 83.979164 548.9344 85.072914ZM555.1375 82.104164L555.16876 82.83854Q555.84064 81.99479 556.91876 81.99479Q558.7625 81.99479 558.77814 84.072914L558.77814 87.916664L557.77814 87.916664L557.77814 84.072914Q557.77814 83.447914 557.4969 83.15104Q557.21564 82.83854 556.60626 82.83854Q556.1375 82.83854 555.7625 83.104164Q555.40314 83.354164 555.2 83.77604L555.2 87.916664L554.2 87.916664L554.2 82.104164L555.1375 82.104164ZM559.9344 84.96354Q559.9344 84.104164 560.2625 83.43229Q560.60626 82.74479 561.2 82.36979Q561.8094 81.99479 562.575 81.99479Q563.7625 81.99479 564.4969 82.822914Q565.23126 83.635414 565.23126 85.010414L565.23126 85.072914Q565.23126 85.916664 564.90314 86.604164Q564.575 87.27604 563.96564 87.65104Q563.3719 88.02604 562.59064 88.02604Q561.40314 88.02604 560.66876 87.21354Q559.9344 86.385414 559.9344 85.02604L559.9344 84.96354ZM560.9344 85.072914Q560.9344 86.041664 561.3875 86.635414Q561.84064 87.21354 562.59064 87.21354Q563.34064 87.21354 563.77814 86.61979Q564.23126 86.02604 564.23126 84.96354Q564.23126 83.99479 563.77814 83.40104Q563.325 82.80729 562.575 82.80729Q561.84064 82.80729 561.3875 83.40104Q560.9344 83.979164 560.9344 85.072914ZM567.27814 87.916664L566.29376 87.916664L566.29376 79.666664L567.27814 79.666664L567.27814 87.916664ZM570.27814 87.916664L569.29376 87.916664L569.29376 82.104164L570.27814 82.104164L570.27814 87.916664ZM569.2 80.55729Q569.2 80.322914 569.34064 80.166664Q569.4969 79.99479 569.79376 79.99479Q570.09064 79.99479 570.23126 80.166664Q570.3875 80.322914 570.3875 80.572914Q570.3875 80.80729 570.23126 80.96354Q570.09064 81.11979 569.79376 81.11979Q569.4969 81.11979 569.34064 80.96354Q569.2 80.80729 569.2 80.55729ZM573.54376 80.697914L573.54376 82.104164L574.6375 82.104164L574.6375 82.86979L573.54376 82.86979L573.54376 86.479164Q573.54376 86.822914 573.6844 87.010414Q573.84064 87.18229 574.1844 87.18229Q574.35626 87.18229 574.66876 87.104164L574.66876 87.916664Q574.2625 88.02604 573.90314 88.02604Q573.23126 88.02604 572.8875 87.61979Q572.5594 87.21354 572.5594 86.479164L572.5594 82.86979L571.4969 82.86979L571.4969 82.104164L572.5594 82.104164L572.5594 80.697914L573.54376 80.697914ZM577.2 82.80729Q577.85626 81.99479 578.91876 81.99479Q580.7625 81.99479 580.77814 84.072914L580.77814 87.916664L579.77814 87.916664L579.77814 84.072914Q579.77814 83.447914 579.4969 83.15104Q579.21564 82.83854 578.60626 82.83854Q578.1375 82.83854 577.7625 83.104164Q577.40314 83.354164 577.2 83.77604L577.2 87.916664L576.2 87.916664L576.2 79.666664L577.2 79.666664L577.2 82.80729Z" fill-rule="nonzero"/><path fill="#000000" d="M29.878124 29.565624Q29.878124 31.440624 29.2375 32.846874Q28.6125 34.253124 27.45625 34.9875Q26.3 35.721874 24.753124 35.721874Q23.2375 35.721874 22.065624 34.9875Q20.89375 34.2375 20.253124 32.8625Q19.6125 31.4875 19.58125 29.675L19.58125 28.753124Q19.58125 26.909374 20.221874 25.503124Q20.878124 24.08125 22.05 23.33125Q23.221874 22.58125 24.721874 22.58125Q26.26875 22.58125 27.440624 23.33125Q28.6125 24.065624 29.2375 25.471874Q29.878124 26.878124 29.878124 28.753124L29.878124 29.565624ZM28.20625 28.7375Q28.20625 26.45625 27.284374 25.253124Q26.378124 24.034374 24.721874 24.034374Q23.128124 24.034374 22.20625 25.253124Q21.3 26.45625 21.26875 28.628124L21.26875 29.565624Q21.26875 31.76875 22.190624 33.034374Q23.128124 34.3 24.753124 34.3Q26.378124 34.3 27.26875 33.1125Q28.175 31.909374 28.20625 29.690624L28.20625 28.7375ZM37.659374 35.55Q37.51875 35.26875 37.425 34.55Q36.284374 35.721874 34.721874 35.721874Q33.315624 35.721874 32.409374 34.925Q31.503124 34.128124 31.503124 32.909374Q31.503124 31.425 32.628124 30.6125Q33.76875 29.784374 35.815624 29.784374L37.39375 29.784374L37.39375 29.034374Q37.39375 28.190624 36.878124 27.690624Q36.378124 27.175 35.378124 27.175Q34.51875 27.175 33.925 27.6125Q33.33125 28.05 33.33125 28.675L31.70625 28.675Q31.70625 27.971874 32.20625 27.315624Q32.70625 26.64375 33.565624 26.253124Q34.440624 25.8625 35.4875 25.8625Q37.128124 25.8625 38.05 26.690624Q38.9875 27.503124 39.01875 28.95625L39.01875 33.33125Q39.01875 34.628124 39.3625 35.409374L39.3625 35.55L37.659374 35.55ZM34.95625 34.315624Q35.721874 34.315624 36.409374 33.925Q37.096874 33.51875 37.39375 32.89375L37.39375 30.940624L36.128124 30.940624Q33.128124 30.940624 33.128124 32.690624Q33.128124 33.45625 33.64375 33.89375Q34.159374 34.315624 34.95625 34.315624ZM43.9875 23.7375L43.9875 26.034374L45.76875 26.034374L45.76875 27.3L43.9875 27.3L43.9875 33.190624Q43.9875 33.76875 44.221874 34.05Q44.45625 34.33125 45.034374 34.33125Q45.315624 34.33125 45.8 34.2375L45.8 35.55Q45.159374 35.721874 44.565624 35.721874Q43.471874 35.721874 42.909374 35.065624Q42.3625 34.409374 42.3625 33.190624L42.3625 27.3L40.628124 27.3L40.628124 26.034374L42.3625 26.034374L42.3625 23.7375L43.9875 23.7375ZM52.440624 28.690624L56.003124 28.690624L56.003124 30.221874L52.440624 30.221874L52.440624 34.26875L50.8 34.26875L50.8 30.221874L47.2375 30.221874L47.2375 28.690624L50.8 28.690624L50.8 24.95625L52.440624 24.95625L52.440624 28.690624ZM62.440624 28.690624L66.00313 28.690624L66.00313 30.221874L62.440624 30.221874L62.440624 34.26875L60.8 34.26875L60.8 30.221874L57.2375 30.221874L57.2375 28.690624L60.8 28.690624L60.8 24.95625L62.440624 24.95625L62.440624 28.690624ZM74.925 33.346874L77.26875 26.034374L78.94063 26.034374L75.51875 35.55L74.28438 35.55L70.84688 26.034374L72.50313 26.034374L74.925 33.346874ZM86.31563 33.034374Q86.31563 32.3625 85.81563 32.003124Q85.33125 31.64375 84.09688 31.378124Q82.8625 31.1125 82.12813 30.753124Q81.40938 30.378124 81.05 29.8625Q80.70625 29.346874 80.70625 28.64375Q80.70625 27.4875 81.69063 26.675Q82.69063 25.8625 84.22188 25.8625Q85.84688 25.8625 86.84688 26.70625Q87.8625 27.534374 87.8625 28.83125L86.22188 28.83125Q86.22188 28.159374 85.64375 27.690624Q85.08125 27.20625 84.22188 27.20625Q83.33125 27.20625 82.83125 27.596874Q82.33125 27.971874 82.33125 28.596874Q82.33125 29.190624 82.8 29.4875Q83.26875 29.784374 84.4875 30.065624Q85.70625 30.33125 86.45625 30.70625Q87.22188 31.08125 87.58125 31.6125Q87.94063 32.14375 87.94063 32.909374Q87.94063 34.190624 86.925 34.95625Q85.90938 35.721874 84.28438 35.721874Q83.14375 35.721874 82.25313 35.315624Q81.37813 34.909374 80.87813 34.190624Q80.37813 33.471874 80.37813 32.628124L82.01875 32.628124Q82.05 33.440624 82.65938 33.925Q83.28438 34.39375 84.28438 34.39375Q85.20625 34.39375 85.75313 34.01875Q86.31563 33.64375 86.31563 33.034374ZM103.87813 29.565624Q103.87813 31.440624 103.2375 32.846874Q102.6125 34.253124 101.45625 34.9875Q100.3 35.721874 98.75313 35.721874Q97.2375 35.721874 96.06563 34.9875Q94.89375 34.2375 94.25313 32.8625Q93.6125 31.4875 93.58125 29.675L93.58125 28.753124Q93.58125 26.909374 94.22188 25.503124Q94.87813 24.08125 96.05 23.33125Q97.22188 22.58125 98.72188 22.58125Q100.26875 22.58125 101.44063 23.33125Q102.6125 24.065624 103.2375 25.471874Q103.87813 26.878124 103.87813 28.753124L103.87813 29.565624ZM102.20625 28.7375Q102.20625 26.45625 101.28438 25.253124Q100.37813 24.034374 98.72188 24.034374Q97.12813 24.034374 96.20625 25.253124Q95.3 26.45625 95.26875 28.628124L95.26875 29.565624Q95.26875 31.76875 96.19063 33.034374Q97.12813 34.3 98.75313 34.3Q100.37813 34.3 101.26875 33.1125Q102.175 31.909374 102.20625 29.690624L102.20625 28.7375ZM111.65938 35.55Q111.51875 35.26875 111.425 34.55Q110.28438 35.721874 108.72188 35.721874Q107.31563 35.721874 106.40938 34.925Q105.50313 34.128124 105.50313 32.909374Q105.50313 31.425 106.62813 30.6125Q107.76875 29.784374 109.81563 29.784374L111.39375 29.784374L111.39375 29.034374Q111.39375 28.190624 110.87813 27.690624Q110.37813 27.175 109.37813 27.175Q108.51875 27.175 107.925 27.6125Q107.33125 28.05 107.33125 28.675L105.70625 28.675Q105.70625 27.971874 106.20625 27.315624Q106.70625 26.64375 107.56563 26.253124Q108.44063 25.8625 109.4875 25.8625Q111.12813 25.8625 112.05 26.690624Q112.9875 27.503124 113.01875 28.95625L113.01875 33.33125Q113.01875 34.628124 113.3625 35.409374L113.3625 35.55L111.65938 35.55ZM108.95625 34.315624Q109.72188 34.315624 110.40938 33.925Q111.09688 33.51875 111.39375 32.89375L111.39375 30.940624L110.12813 30.940624Q107.12813 30.940624 107.12813 32.690624Q107.12813 33.45625 107.64375 33.89375Q108.15938 34.315624 108.95625 34.315624ZM117.9875 23.7375L117.9875 26.034374L119.76875 26.034374L119.76875 27.3L117.9875 27.3L117.9875 33.190624Q117.9875 33.76875 118.22188 34.05Q118.45625 34.33125 119.03438 34.33125Q119.31563 34.33125 119.8 34.2375L119.8 35.55Q119.15938 35.721874 118.56563 35.721874Q117.47188 35.721874 116.90938 35.065624Q116.3625 34.409374 116.3625 33.190624L116.3625 27.3L114.62813 27.3L114.62813 26.034374L116.3625 26.034374L116.3625 23.7375L117.9875 23.7375ZM126.44063 28.690624L130.00313 28.690624L130.00313 30.221874L126.44063 30.221874L126.44063 34.26875L124.8 34.26875L124.8 30.221874L121.2375 30.221874L121.2375 28.690624L124.8 28.690624L124.8 24.95625L126.44063 24.95625L126.44063 28.690624ZM136.44063 28.690624L140.00313 28.690624L140.00313 30.221874L136.44063 30.221874L136.44063 34.26875L134.8 34.26875L134.8 30.221874L131.2375 30.221874L131.2375 28.690624L134.8 28.690624L134.8 24.95625L136.44063 24.95625L136.44063 28.690624ZM148.22188 22.753124L152.39375 33.190624L156.58125 22.753124L158.76875 22.753124L158.76875 35.55L157.08125 35.55L157.08125 30.565624L157.2375 25.190624L153.03438 35.55L151.75313 35.55L147.55 25.20625L147.72188 30.565624L147.72188 35.55L146.03438 35.55L146.03438 22.753124L148.22188 22.753124ZM161.34688 30.70625Q161.34688 29.315624 161.89375 28.20625Q162.45625 27.08125 163.425 26.471874Q164.40938 25.8625 165.65938 25.8625Q167.6125 25.8625 168.8 27.20625Q170.00313 28.55 170.00313 30.784374L170.00313 30.89375Q170.00313 32.284374 169.47188 33.39375Q168.94063 34.4875 167.95625 35.1125Q166.97188 35.721874 165.69063 35.721874Q163.75313 35.721874 162.55 34.378124Q161.34688 33.034374 161.34688 30.815624L161.34688 30.70625ZM162.9875 30.89375Q162.9875 32.4875 163.72188 33.440624Q164.45625 34.39375 165.69063 34.39375Q166.925 34.39375 167.64375 33.425Q168.37813 32.45625 168.37813 30.70625Q168.37813 29.14375 167.62813 28.175Q166.89375 27.20625 165.65938 27.20625Q164.45625 27.20625 163.72188 28.159374Q162.9875 29.1125 162.9875 30.89375ZM173.31563 26.034374L173.37813 27.2375Q174.45625 25.8625 176.22188 25.8625Q179.2375 25.8625 179.25313 29.26875L179.25313 35.55L177.62813 35.55L177.62813 29.253124Q177.62813 28.221874 177.15938 27.7375Q176.70625 27.2375 175.72188 27.2375Q174.94063 27.2375 174.33125 27.659374Q173.7375 28.08125 173.40938 28.76875L173.40938 35.55L171.78438 35.55L171.78438 26.034374L173.31563 26.034374ZM181.34688 30.70625Q181.34688 29.315624 181.89375 28.20625Q182.45625 27.08125 183.425 26.471874Q184.40938 25.8625 185.65938 25.8625Q187.6125 25.8625 188.8 27.20625Q190.00313 28.55 190.00313 30.784374L190.00313 30.89375Q190.00313 32.284374 189.47188 33.39375Q188.94063 34.4875 187.95625 35.1125Q186.97188 35.721874 185.69063 35.721874Q183.75313 35.721874 182.55 34.378124Q181.34688 33.034374 181.34688 30.815624L181.34688 30.70625ZM182.9875 30.89375Q182.9875 32.4875 183.72188 33.440624Q184.45625 34.39375 185.69063 34.39375Q186.925 34.39375 187.64375 33.425Q188.37813 32.45625 188.37813 30.70625Q188.37813 29.14375 187.62813 28.175Q186.89375 27.20625 185.65938 27.20625Q184.45625 27.20625 183.72188 28.159374Q182.9875 29.1125 182.9875 30.89375ZM193.55 35.55L191.925 35.55L191.925 22.05L193.55 22.05L193.55 35.55ZM197.55 35.55L195.925 35.55L195.925 26.034374L197.55 26.034374L197.55 35.55ZM195.78438 23.51875Q195.78438 23.128124 196.01875 22.8625Q196.26875 22.58125 196.7375 22.58125Q197.22188 22.58125 197.47188 22.8625Q197.72188 23.128124 197.72188 23.51875Q197.72188 23.909374 197.47188 24.175Q197.22188 24.440624 196.7375 24.440624Q196.26875 24.440624 196.01875 24.175Q195.78438 23.909374 195.78438 23.51875ZM201.9875 23.7375L201.9875 26.034374L203.76875 26.034374L203.76875 27.3L201.9875 27.3L201.9875 33.190624Q201.9875 33.76875 202.22188 34.05Q202.45625 34.33125 203.03438 34.33125Q203.31563 34.33125 203.8 34.2375L203.8 35.55Q203.15938 35.721874 202.56563 35.721874Q201.47188 35.721874 200.90938 35.065624Q200.3625 34.409374 200.3625 33.190624L200.3625 27.3L198.62813 27.3L198.62813 26.034374L200.3625 26.034374L200.3625 23.7375L201.9875 23.7375ZM207.40938 27.190624Q208.4875 25.8625 210.22188 25.8625Q213.2375 25.8625 213.25313 29.26875L213.25313 35.55L211.62813 35.55L211.62813 29.253124Q211.62813 28.221874 211.15938 27.7375Q210.70625 27.2375 209.72188 27.2375Q208.94063 27.2375 208.33125 27.659374Q207.7375 28.08125 207.40938 28.76875L207.40938 35.55L205.78438 35.55L205.78438 22.05L207.40938 22.05L207.40938 27.190624Z" fill-rule="nonzero"/></svg>